<svg xmlns="http://www.w3.org/2000/svg" width="355.633" height="496.686" viewBox="0 0 355.633 496.686">
  <g id="Group_353" data-name="Group 353" transform="translate(-1363.256 -1392.314)" opacity="0.096">
    <g id="Group_327" data-name="Group 327">
      <g id="Group_325" data-name="Group 325">
        <path id="Path_611" data-name="Path 611" d="M1381.535,5097.049v-47.571H1148.884s-22.481,6.186-19.185,26.137,16.71,21.434,16.71,21.434Z" transform="translate(254 -3509)" fill="#fff"/>
        <path id="Path_612" data-name="Path 612" d="M1152.778,5397.741c-36.69-4.229-42.077-36.9-42.077-36.9s-3.435-259.8.287-293.4,33.471-37.952,33.471-37.952,234.377-.181,244.968,0,11.22,10.488,11.22,10.488v57.065h-19.112v-48.74l-232.176.58s-16.546,4.263-20.153,21.039c-.862,4.01.588,7.863,1.924,11.335,3.821,9.954,14.389,15.642,14.389,15.642h12.606l.177,300.835Z" transform="translate(254 -3509)" fill="#9347aa"/>
        <rect id="Rectangle_157" data-name="Rectangle 157" width="28" height="301" transform="translate(1412 1588)" fill="#b23ed6"/>
        <rect id="Rectangle_158" data-name="Rectangle 158" width="3" height="301" transform="translate(1440 1588)" fill="#d985f4"/>
        <path id="Path_613" data-name="Path 613" d="M1189,5097.049h217.481s14.408-1.9,13.376,13.506,0,274.968,0,274.968.456,12.092-10.191,12.153-220.667,0-220.667,0" transform="translate(254 -3509)" fill="#d346ff"/>
        <rect id="Rectangle_159" data-name="Rectangle 159" width="155" height="12" rx="6" transform="translate(1476 1803)" fill="#dc6eff"/>
        <rect id="Rectangle_160" data-name="Rectangle 160" width="109" height="12" rx="6" transform="translate(1499 1825)" fill="#dc6eff"/>
      </g>
      <text id="Pandora_s_Box" data-name="Pandora’s
Box" transform="translate(1466 1662)" fill="#fff" font-size="40" font-family="MuseoSansRounded-700, Museo Sans Rounded" font-weight="700"><tspan x="0" y="0">Pandora’s</tspan><tspan x="0" y="48">Box</tspan></text>
    </g>
    <path id="Path_614" data-name="Path 614" d="M2568.213,4959.423s-3.553,26.38-4.279,28.247-.413,11.667-15.838,12.816-16,.572-16,.572,16.766,1.131,22.635,7.052,9.291,6.335,11.612,30.1,2.288,21.587,2.288,21.587,2.51-32.632,3.826-36.9,1.787-14.682,16.19-17.891,16.514-3,16.514-3-17.939-.963-21.114-2.217-9.619-.57-11.589-13.28S2568.213,4959.423,2568.213,4959.423Z" transform="translate(-886.269 -3499.358)" fill="#fcb2ff"/>
    <path id="Path_615" data-name="Path 615" d="M2558.162,4959.423s-2.564,19.039-3.088,20.386-.3,8.421-11.431,9.25-11.549.413-11.549.413,12.1.816,16.336,5.09,6.706,4.572,8.38,21.724,1.651,15.579,1.651,15.579,1.812-23.551,2.761-26.631,1.29-10.6,11.685-12.912,11.918-2.168,11.918-2.168-12.947-.695-15.238-1.6-6.942-.411-8.365-9.584S2558.162,4959.423,2558.162,4959.423Z" transform="translate(-939 -3521.437)" fill="#fcb2ff"/>
    <path id="Path_616" data-name="Path 616" d="M2554.164,4959.423s-2.171,16.12-2.614,17.26-.252,7.129-9.678,7.832-9.778.349-9.778.349,10.244.691,13.831,4.309,5.677,3.871,7.1,18.392,1.4,13.19,1.4,13.19,1.534-19.939,2.338-22.547,1.092-8.971,9.892-10.932,10.09-1.835,10.09-1.835-10.961-.588-12.9-1.355-5.877-.349-7.082-8.115S2554.164,4959.423,2554.164,4959.423Z" transform="translate(-894.381 -3567.109)" fill="#fcb2ff"/>
  </g>
</svg>
