<svg xmlns="http://www.w3.org/2000/svg" viewBox="0 0 414.31 303.36"><defs><style>.cls-1{fill:#71ccdf;}.cls-2{fill:#46c1ca;}.cls-3{fill:#f6eb0f;}.cls-4{fill:#ebe84d;}.cls-5{fill:#686853;}</style></defs><title>Asset 25</title><g id="Layer_2" data-name="Layer 2"><g id="ear"><rect class="cls-1" width="414.31" height="180.76" rx="57.24"/><path class="cls-2" d="M0,90.38H414.31a0,0,0,0,1,0,0v203a10,10,0,0,1-10,10H10a10,10,0,0,1-10-10v-203A0,0,0,0,1,0,90.38Z"/><path class="cls-3" d="M379.37,292.55c3.65-11.88-1.48-24-11.46-27.06,10,3.06,21-4.09,24.68-16-3.65,11.88,1.48,24,11.45,27.07C394.07,273.52,383,280.67,379.37,292.55ZM364.7,258.34c-6.65,3.1-14.95-.65-18.54-8.37,3.59,7.72,1.12,16.48-5.53,19.58,6.65-3.1,14.95.65,18.54,8.37C355.58,270.2,358.05,261.44,364.7,258.34Zm18.45-17.63c-5.15-1.56-7.87-7.67-6.06-13.65-1.81,6-7.44,9.57-12.6,8,5.16,1.55,7.87,7.66,6.06,13.64C372.36,242.74,378,239.15,383.15,240.71Z"/><path class="cls-3" d="M68.85,134.05c-1.06-6.15-6.21-10.4-11.5-9.49,5.29-.91,8.73-6.63,7.67-12.78,1.06,6.15,6.2,10.39,11.5,9.48C71.22,122.17,67.79,127.9,68.85,134.05ZM28.59,155.57c6.3-.94,12.29,4.23,13.38,11.54-1.09-7.31,3.13-14,9.43-14.94-6.3.94-12.29-4.23-13.38-11.55C39.11,147.94,34.89,154.63,28.59,155.57Z"/><path class="cls-3" d="M40.34,101.21c-3.71,11.42,1.27,23.27,11.11,26.46-9.84-3.19-20.82,3.49-24.52,14.92,3.7-11.43-1.27-23.27-11.11-26.46C25.66,119.32,36.63,112.63,40.34,101.21Z"/><rect class="cls-4" x="186.73" y="75.32" width="47.22" height="63.31" rx="10.71"/><circle class="cls-5" cx="210.34" cy="106.97" r="7.34"/><polygon class="cls-5" points="210.34 129.02 203 129.02 207.16 108.78 213.2 108.78 217.68 129.02 210.34 129.02"/></g></g></svg>