<svg xmlns="http://www.w3.org/2000/svg" xmlns:xlink="http://www.w3.org/1999/xlink" width="417.411" height="1597.595" viewBox="0 0 417.411 1597.595">
  <defs>
    <linearGradient id="linear-gradient" y1="0.5" x2="1" y2="0.5" gradientUnits="objectBoundingBox">
      <stop offset="0" stop-color="#bba3cd"/>
      <stop offset="1" stop-color="#58bed7"/>
    </linearGradient>
  </defs>
  <g id="Group_315" data-name="Group 315" transform="translate(-1352.461 -85.92)">
    <path id="Path_585" data-name="Path 585" d="M1646.141,1027.078c-25-1.045-46.253,12.587-46.843,30.046-2.493,73.723-7.836,252.158-2.531,288.219,4.619,31.392,62.07,20.531,70.692,4.334,10.736-20.168,17.863-215.537,20.24-291.151.52-16.567-17.834-30.458-41.558-31.448Z" fill="#ffd1b1"/>
    <path id="Path_586" data-name="Path 586" d="M1723.74,353.126c0-34.872-40.745-64.922-99.427-78.591-21.662-5.046-51.292-188.615-76.7-188.615-22.894,0-39.213,183.04-59.161,187.185-62.146,12.914-105.917,43.877-105.917,80.021a44.85,44.85,0,0,0,.881,8.839c8.736,43.593,81.388,77.611,169.719,77.611C1647.359,439.576,1723.74,400.871,1723.74,353.126Z" fill="#030504"/>
    <path id="Path_587" data-name="Path 587" d="M1634.757,310.493c10.025,6.477,58.844,36.4,69.481,117.206s-12.173,229.482-20.184,251.672-118.881-13.442-100.595-69.9-30-265.3-19.427-296.713C1567.859,301.384,1608.91,293.793,1634.757,310.493Z" fill="#00182d"/>
    <path id="Path_588" data-name="Path 588" d="M1480.719,310.493c-10.025,6.477-58.844,36.4-69.481,117.206s12.174,229.482,20.185,251.672,118.881-13.442,100.595-69.9,30-265.3,19.427-296.713C1547.617,301.384,1506.566,293.793,1480.719,310.493Z" fill="#00182d"/>
    <path id="Path_589" data-name="Path 589" d="M1459.975,684.756s-26.812-86.027-24.78-171.8,21.127-102.746,21.127-102.746,1.994,72.782,7.931,135.1c6.129,64.343,28.657,120.451,26.436,125.363C1486.318,680.346,1459.975,684.756,1459.975,684.756Z" fill="#002037"/>
    <path id="Path_590" data-name="Path 590" d="M1498.116,327.689c-6.267,5.839-36.785,32.81-43.434,105.656s14.123,220.976,16.289,241.483c1.42,13.44,69.966-14.851,62.32-59.99-8.711-51.428,15.644-256.787,9.037-285.105C1539.935,319.478,1514.273,312.635,1498.116,327.689Z" fill="#b7a5cf"/>
    <path id="Path_591" data-name="Path 591" d="M1681.6,682.707c9.235,1.725,23.253-88.475,12.574-173.578s-35.679-101.411-35.679-101.411-1.6,31.076,7.177,136.742c5.356,64.446.908,86.09,3.815,90.736C1675.206,644.341,1669.547,680.456,1681.6,682.707Z" fill="#002037"/>
    <path id="Path_592" data-name="Path 592" d="M1617.361,328.132c6.266,6.135,36.785,34.47,43.434,111.005s-7.61,217.34-12.618,238.355-64.568-26.817-66.539-44.363c-6.114-54.423-15.1-273.1-8.489-302.85C1575.542,319.505,1601.2,312.315,1617.361,328.132Z" fill="#b7a5cf"/>
    <path id="Path_593" data-name="Path 593" d="M1512.792,557.411s19.654,37.05-15.814,63.1-77.789-9.291-101.528,16.763-19.791,103.6-20.18,106.032c-6.627,41.4,59.75-45.367,74.589-43.1,84.892,12.971,11.908,343.3,11.908,343.3l199.424,1.788s-12.528-305.7-7.809-317.044c2.133-5.127-6.477-23.456,9.8-25.676,10.273-1.4,8.6,26.385,20.545,17.276,12.686-9.677,43.569,16.818,52.3-1.868,7.99-17.1-4.974-79.61-17.642-85.378-47.025-21.412-102.859-7.221-116.254-20.162-13.661-13.2-11.355-45.311-.114-56.678C1616.621,541.006,1512.792,557.411,1512.792,557.411Z" fill="#ffd1b1"/>
    <path id="Path_594" data-name="Path 594" d="M1557.9,566.742h-7.828c-25.421,0-44.059-14.068-61.054-30.385-17.929-17.212-33.53-37.382-33.53-64.2,0,0-3.4-76.113,0-101.177,1.8-13.233,23.214-33.128,44.113-44.114,12.433-6.535,29.984-14.108,54.385-14.108s43.052,6.06,61.2,16.542c15.218,8.792,35.859,29.408,37.3,41.68,2.952,25.121,0,101.177,0,101.177,0,27.482-16.6,48.122-35.313,65.4C1600.314,553.127,1582.656,566.742,1557.9,566.742Z" fill="#ffd1b1"/>
    <path id="Path_595" data-name="Path 595" d="M1658.794,371.024c-1.442-12.271-22.083-32.888-37.3-41.679-18.144-10.482-36.8-16.542-61.2-16.542-2.07,0-4.073.073-6.046.176,21.169,1.02,38.04,6.869,54.479,16.366,15.218,8.791,35.858,29.408,37.3,41.679,2.952,25.122,0,101.177,0,101.177,0,27.483-16.6,48.123-35.313,65.4-16.3,15.047-33.342,28.268-56.821,29.133q1.233.045,2.487.047h7.828c27.643,0,39.525-10.948,59.271-29.18,18.717-17.281,35.313-37.921,35.313-65.4C1658.794,472.2,1661.746,396.146,1658.794,371.024Z" fill="#f7dccd"/>
    <path id="Path_596" data-name="Path 596" d="M1561.729,443.534c0,7.333-.491,15.741-.491,15.741-.738,3.671-.741,8.764-2.608,8.764-4.978,0-9.013-9.512-9.013-21.245s4.035-21.245,9.013-21.245S1561.729,431.8,1561.729,443.534Z" fill="#fcbda4"/>
    <path id="Path_597" data-name="Path 597" d="M1614.341,390.915c.2.808-4.5-1.742-9.8.024-3.587,1.194-10.87,3.426-15.776,4.622-12.163,2.963-14.931-.852-15.262-2.206s9.437-.638,21.6-3.6S1614.011,389.56,1614.341,390.915Z" fill="#00182d"/>
    <path id="Path_598" data-name="Path 598" d="M1490.568,393.551c-.087.827,4.224-2.329,9.718-1.289,3.715.7,11.231,1.941,16.253,2.469,12.45,1.308,15.074,1.36,15.22-.026s-9.828-3.572-22.278-4.881S1490.714,392.164,1490.568,393.551Z" fill="#00182d"/>
    <ellipse id="Ellipse_115" data-name="Ellipse 115" cx="24.914" cy="16.084" rx="24.914" ry="16.084" transform="matrix(0.943, -0.332, 0.332, 0.943, 1474.971, 461.2)" fill="#b7a5cf" opacity="0.6"/>
    <ellipse id="Ellipse_116" data-name="Ellipse 116" cx="16.084" cy="24.914" rx="16.084" ry="24.914" transform="matrix(0.332, -0.943, 0.943, 0.332, 1584.281, 477.006)" fill="#b7a5cf" opacity="0.6"/>
    <path id="Path_599" data-name="Path 599" d="M1499.117,536.357c-17.929-17.212-33.529-37.382-33.529-64.2,0,0-3.4-76.113,0-101.177,1.8-13.232,23.213-33.128,44.113-44.114,11.388-5.986,27.088-12.824,48.394-13.935-2.175-.1-4.38-.173-6.65-.173-24.4,0-41.952,7.573-54.385,14.108-20.9,10.986-42.318,30.882-44.113,44.114-3.4,25.064,0,101.177,0,101.177,0,26.816,15.6,46.986,33.529,64.2,17,16.317,35.634,30.385,61.055,30.385h7.828q1.2,0,2.387-.044C1533.557,565.836,1515.568,552.15,1499.117,536.357Z" fill="#d39257"/>
    <path id="Path_600" data-name="Path 600" d="M1551.445,312.76c-2.409,20.317,25.352,21.733,64.312,47.74s57.738,69.951,57.738,69.951,12.5-52.015,0-78.022-40.8-58.816-96.238-54.7C1555.455,299.34,1552.473,304.085,1551.445,312.76Z" fill="#00182d"/>
    <path id="Path_601" data-name="Path 601" d="M1552.975,321.551c4.32-3.319,99.778,49.431,107.131,84.984C1663.763,424.217,1542.328,329.733,1552.975,321.551Z" fill="#b7a5cf"/>
    <g id="Group_310" data-name="Group 310">
      <path id="Path_602" data-name="Path 602" d="M1511.39,404.421c-13.212-4.307-24.4.094-28.845,5.017s.284,9.182,1.223,9.711c1.226.689,11.394,9.52,38.507,6.48,8.055-.9,12.749,1.9,12.463-.334S1523.974,408.523,1511.39,404.421Z" fill="#fff"/>
      <circle id="Ellipse_117" data-name="Ellipse 117" cx="8.707" cy="8.707" r="8.707" transform="translate(1501.322 408.298)" fill="#60bcdc"/>
      <circle id="Ellipse_118" data-name="Ellipse 118" cx="3.372" cy="3.372" r="3.372" transform="translate(1506.648 413.693)" fill="#080909"/>
      <path id="Path_603" data-name="Path 603" d="M1479.1,411.953s19.727-1.41,31.437,1.779c10.635,2.9,24.077,13.538,24.217,12.221.337-3.163-7.546-11.454-7.546-11.454s-7-8.76-20.928-11.42S1475.393,405.841,1479.1,411.953Z" fill="#eb9c7e"/>
    </g>
    <g id="Group_311" data-name="Group 311">
      <path id="Path_604" data-name="Path 604" d="M1602.266,405.289c13.328-3.934,24.39.781,28.693,5.827s-.543,9.17-1.5,9.672c-1.245.655-11.657,9.2-38.674,5.394-8.027-1.13-12.8,1.545-12.448-.685S1589.571,409.035,1602.266,405.289Z" fill="#fff"/>
      <circle id="Ellipse_119" data-name="Ellipse 119" cx="8.707" cy="8.707" r="8.707" transform="translate(1597.442 408.831)" fill="#60bcdc"/>
      <circle id="Ellipse_120" data-name="Ellipse 120" cx="3.372" cy="3.372" r="3.372" transform="translate(1602.78 414.226)" fill="#080909"/>
      <path id="Path_605" data-name="Path 605" d="M1634.331,413.727s-16.552-2.355-28.347.5c-10.712,2.6-27.577,13.244-27.68,11.923-.247-3.171,7.867-11.236,7.867-11.236s7.246-8.56,21.241-10.827S1638.208,407.722,1634.331,413.727Z" fill="#eb9c7e"/>
    </g>
    <path id="Path_606" data-name="Path 606" d="M1447.257,430.451s16.851-44.978,33.936-59.022,49.648-30.895,65.564-42.134c11.338-8.006,4.688-16.535,4.688-16.535s-11.627-13.427-33.8-6.873-58.674,14.981-70.386,44.943S1447.257,430.451,1447.257,430.451Z" fill="#00182d"/>
    <path id="Path_607" data-name="Path 607" d="M1455.9,410.21s40.192-46.1,51.145-55.294,31.83-20.227,42.034-27.585c7.269-5.242,3.005-10.826,3.005-10.826s-7.454-8.791-21.67-4.5-37.616,9.809-45.125,29.425S1455.9,410.21,1455.9,410.21Z" fill="#002037"/>
    <path id="Path_608" data-name="Path 608" d="M1552.975,321.551s27.919-6.927,69.921,25.944c32.161,25.169,58.263,60.223,58.263,60.223,6.422-7.633-12.947-58.152-47.31-78.782s-73.5-17.071-79.594-16.176S1552.975,321.551,1552.975,321.551Z" fill="#002037"/>
    <path id="Path_609" data-name="Path 609" d="M1553.151,321.476c-10.647,8.182,110.788,102.666,107.131,84.984" fill="#c0b2d5"/>
    <path id="Path_610" data-name="Path 610" d="M1630.225,1311.484c-20.828,4.3-35.415,20.323-32.155,35.307,13.767,63.27,47.652,216.263,59.762,245.856,10.542,25.761,39.688,3.671,43.318-11.907,4.519-19.4-15.662-186.265-29.93-251.121-3.126-14.21-21.231-22.22-40.995-18.135Z" fill="#ffd1b1"/>
    <path id="Path_611" data-name="Path 611" d="M1700.118,1567.338c-12.766-8.788-26.057-12.55-29.3-8.3-13.681,17.97-46.437,61.7-49.751,72.712-2.886,9.588,20.354,18.929,27.539,17.733,8.947-1.489,53.8-41.467,67.735-59.96,3.054-4.051-4.112-13.852-16.226-22.19Z" fill="#ffd1b1"/>
    <path id="Path_612" data-name="Path 612" d="M1510.77,1027.078c24.756-1.045,45.8,12.587,46.382,30.046,2.467,73.723,7.758,252.158,2.505,288.219-4.573,31.392-61.457,20.531-69.994,4.335-10.631-20.169-17.688-215.538-20.04-291.152-.516-16.567,17.657-30.457,41.147-31.448Z" fill="#ffd1b1"/>
    <path id="Path_613" data-name="Path 613" d="M1528.73,1308.454c20.021,3.883,34.012,19.708,30.842,34.882-13.388,64.078-46.336,219.034-58.052,249.128-10.2,26.2-38.177,4.572-41.632-11.05-4.3-19.453,15.5-188.094,29.373-253.78,3.04-14.392,20.471-22.863,39.469-19.18Z" fill="#ffd1b1"/>
    <path id="Path_614" data-name="Path 614" d="M1425.335,636.441c18.735,3.537,31.523,19.522,28.191,35.234-14.073,66.349-48.643,226.81-60.357,258.1-10.2,27.236-36,5.6-38.887-10.423-3.594-19.949,18.932-194.208,33.5-262.226,3.191-14.9,19.778-24.037,37.554-20.681Z" fill="#ffd1b1"/>
    <path id="Path_615" data-name="Path 615" d="M1694.181,636.984c18.795-3.225,36.439,8.48,38.894,25.8,10.366,73.141,36.662,239.693,36.8,276.039.117,31.64-33.448,29.432-41.834,14.07-10.443-19.13-51.183-205.95-61.679-280.982-2.3-16.44,9.988-31.867,27.822-34.928Z" fill="#ffd1b1"/>
    <path id="Path_616" data-name="Path 616" d="M1718.507,1178.222c-15.729-30.583-32.669-253.111-37.446-319.919a5.21,5.21,0,0,0,.484-3.087c-4.154-27.878-2.366-89.021-14.7-127.323-11.338-35.212-7.005-97.173-6.233-106.938a1.281,1.281,0,0,0-1.215-1.381l-39.869-2.069a1.274,1.274,0,0,0-1.148.589c-4.517,7.126-48.781,62.027-61.733,63.911-28.691,4.174-52.6-50.851-58.077-62.144a1.278,1.278,0,0,0-1.384-.7l-49.079,8.926a1.284,1.284,0,0,0-1.05,1.379c.683,7.555,4.331,50.473,2.8,90.322-1.242,32.353-9.868,82.292-7.123,114.283l-.242-.005s.95,97.187-2.259,175.937-27.226,185.392-27.226,185.392,201.778,6.563,212.706-17.176,26.8-64.856,26.8-64.856l35.6,73.829S1730.059,1200.682,1718.507,1178.222Z" fill="#00182d"/>
    <path id="Path_617" data-name="Path 617" d="M1452.947,472.159s41.318,117.309,65.709,145.49-9.814,70.313-10.457,84.172c-.627,13.49-17.356,17.654-17.356,17.654-15.391-4.635,20.244-52.83-6.6-86.976s-27.216-26.866-32.8-55.069C1446.321,551.612,1452.947,472.159,1452.947,472.159Z" fill="#002037"/>
    <path id="Path_618" data-name="Path 618" d="M1405.084,879.67l-46.012-14.844a2.108,2.108,0,0,1-1.452-2.238c2.072-18.766,20.582-185.92,23.458-194.37,1.523-4.477,5.2-17.208,10.8-25.881a32.924,32.924,0,0,1,22.475-14.926c11.537-1.708,40.041,2.829,40.041,2.829l2.657,69.976-9.042.3-40.212,177.608A2.113,2.113,0,0,1,1405.084,879.67Z" fill="#00182d" opacity="0.3"/>
    <path id="Path_619" data-name="Path 619" d="M1712.5,884.989l47.7-17.328a3.061,3.061,0,0,0,2-3.263c-2.816-22.269-24.148-190.52-27.074-198.853-1.567-4.463-5.924-19.2-11.6-27.823s-18.042-10.6-26.1-12.876c-16.965-4.8-40.319-5.964-40.319-5.964l-4.448,89.616s18-9.924,20.331,4.147c9.662,58.248,31.107,151.355,35.477,170.154A3.071,3.071,0,0,0,1712.5,884.989Z" fill="#00182d" opacity="0.3"/>
    <path id="Path_620" data-name="Path 620" d="M1515.8,593.506a92.571,92.571,0,0,0,37.529,6.4c19.027-.69,40.458-6.531,40.458-6.531l1.085,4.964s-16.421,5.618-40.653,6.685c-25.257,1.113-39.733-7.475-39.733-7.475Z" fill="#00182d"/>
    <path id="Path_621" data-name="Path 621" d="M1512.792,557.411s18.972,9.242,32.017,9.374c13.253.134,24.089.36,30.748-.712,20.5-3.3,26.461-10.3,26.461-10.3s-10.393,10.47-14.389,13.3c-9.031,6.4-19.906,7.137-29.534,7.673-6.085.339-20.309-1.685-29.146-6.259A59.5,59.5,0,0,1,1512.792,557.411Z" fill="#c49b87" opacity="0.3"/>
    <path id="Path_622" data-name="Path 622" d="M1392.723,354.563c.414-42.532,85.424-65.654,154.629-66.779,103.716-1.686,186.163,32.027,165.295,85.328-5.634,14.39-3.576,13.243-3.576,13.243s12.795-8.964,14.669-32.467-11.994-39.168-30.092-52.8-46.924-24.325-69.335-29.55c-50.551-11.787-122.723-6.122-146.109.906-22.4,6.732-63.289,15.9-83.865,46.035-16.118,23.608-12.451,31.739-10.919,40.489C1384.87,367.253,1392.386,389.194,1392.723,354.563Z" fill="#242424"/>
    <path id="Path_623" data-name="Path 623" d="M1552.931,95.156c-7.6-.188,37.474,134.843,42.083,152.781,4.392,17.09,11.038,14.67,11.038,14.67s-32.172-117.828-40.088-139.868C1560.381,107.2,1558.677,95.3,1552.931,95.156Z" fill="#fff" opacity="0.2"/>
    <path id="Path_624" data-name="Path 624" d="M1390.233,893.544c24.234,22.552,82.593,77.427,91.631,91.221,7.867,12.008-14.347,23.567-23.157,22.032-10.97-1.912-72.865-50.893-97.643-74.1-5.429-5.085-7.015-42.005-5.552-48.189C1355.512,884.509,1384.493,888.2,1390.233,893.544Z" fill="#ffd1b1"/>
    <path id="Path_625" data-name="Path 625" d="M1449.5,1010.8c-.922-13.109,25.257-28.08,26.9-45.162,1.012-10.515,11.406,16.214,12.061,22.581.881,8.571-1.8,30.792-15.482,30.792S1449.934,1017,1449.5,1010.8Z" fill="#002037"/>
    <path id="Path_626" data-name="Path 626" d="M1464.078,406.983s16.525-21.225,35.513-48.86,53.233-36.721,53.233-36.721-7.452,2.776-21.818,19.423S1464.078,406.983,1464.078,406.983Z" fill="#b7a5cf"/>
    <path id="Path_627" data-name="Path 627" d="M1482.149,410.924s5.689-25.166,24.678-52.8,46-36.721,46-36.721-.216,2.776-14.583,19.423S1482.149,410.924,1482.149,410.924Z" fill="#00182d"/>
    <g id="Group_313" data-name="Group 313">
      <path id="Path_628" data-name="Path 628" d="M1538.633,873.833l142.313-1.594.017,163.571-149.249-2.211-1.207-16.067v-133.1Z" fill="#fff"/>
      <g id="Group_312" data-name="Group 312">
        <path id="Path_629" data-name="Path 629" d="M1681.691,869.47H1545.874a19.834,19.834,0,0,0-19.807,19.807v135.817a14.165,14.165,0,0,0,14.148,14.148h141.476a2.83,2.83,0,0,0,2.829-2.83V872.3A2.83,2.83,0,0,0,1681.691,869.47Zm-25.466,5.66h5.659v135.817h-5.659Zm-107.522,0h101.863v135.817H1548.7Zm31.125,141.476v9.569l-7.224-3.613a2.828,2.828,0,0,0-2.529,0l-7.224,3.613v-9.569Zm-48.1-19.807a5.327,5.327,0,0,1,4.975-5.659,5.2,5.2,0,0,1,.684,0v-5.659a11.538,11.538,0,0,0-5.659,1.378v-4.208a5.328,5.328,0,0,1,4.975-5.659,5.583,5.583,0,0,1,.684,0v-5.659a11.55,11.55,0,0,0-5.659,1.378V909.084a5.327,5.327,0,0,1,4.975-5.659,5.2,5.2,0,0,1,.684,0v-5.659a11.539,11.539,0,0,0-5.659,1.378v-9.867a14.173,14.173,0,0,1,11.318-13.865v135.535h-2.829a14,14,0,0,0-8.489,2.9Zm147.135,36.784H1540.215a8.488,8.488,0,1,1,0-16.977h16.977v5.659h-19.807v5.659h19.807v2.829a2.83,2.83,0,0,0,4.094,2.547l10.053-5.042,10.054,5.042a2.829,2.829,0,0,0,4.094-2.547v-2.829h93.374Zm0-11.318h-93.374v-5.659h93.374Zm0-130.158H1673.2v5.659h5.659v11.318H1673.2v5.659h5.659V968.5H1673.2v5.659h5.659v36.784h-11.318V875.13h11.318Z" fill="url(#linear-gradient)"/>
        <path id="Path_630" data-name="Path 630" d="M1599.635,948.7a8.489,8.489,0,1,0-8.489-8.488A8.488,8.488,0,0,0,1599.635,948.7Zm0-11.318a2.829,2.829,0,1,1-2.83,2.83A2.83,2.83,0,0,1,1599.635,937.379Z" fill="url(#linear-gradient)"/>
        <path id="Path_631" data-name="Path 631" d="M1644.907,971.333V880.789h-90.545v90.544Zm-62.861-22.053a23.429,23.429,0,0,1-7.475-8.687,47.176,47.176,0,0,1,6.264-6.584,19.625,19.625,0,0,0,1.211,15.279Zm-.648-22.86,5.4-10.8,1.038,7.275A38.037,38.037,0,0,0,1581.4,926.42Zm-5.888,24.824-10.427,7.82,6.336-12.67A29.582,29.582,0,0,0,1575.51,951.244Zm2.716,14.43H1565.68l14.462-10.845a30.587,30.587,0,0,0,3.463,1.884Zm18.579,0h-11.98l4.207-7.011a39.534,39.534,0,0,0,7.773,1.219Zm5.659,0v-5.792a39.534,39.534,0,0,0,7.773-1.219l4.207,7.011Zm15.97-31.665a47.185,47.185,0,0,1,6.259,6.576,23.774,23.774,0,0,1-7.439,8.627A19.61,19.61,0,0,0,1618.434,934.009Zm-7-11.111,1.038-7.275,5.4,10.8A38.028,38.028,0,0,0,1611.434,922.9Zm9.609,42.776-5.376-8.961a30.672,30.672,0,0,0,3.463-1.884l14.459,10.845Zm2.716-14.444a29.63,29.63,0,0,0,4.092-4.85l6.335,12.67Zm15.489-64.782v70.07l-35.035-70.07Zm-36.784,9.156,5.563,11.126-2.057,14.388a29.023,29.023,0,0,0-3.506-.549Zm11.318,44.6a14.147,14.147,0,1,1-14.147-14.148A14.147,14.147,0,0,1,1613.782,940.209Zm-16.977-19.64a29.055,29.055,0,0,0-3.506.549l-2.057-14.388,5.563-11.126Zm-36.784-34.121h35.035l-35.035,70.07Z" fill="url(#linear-gradient)"/>
        <path id="Path_632" data-name="Path 632" d="M1644.907,976.992h-90.545v28.3h90.545Zm-5.659,22.637h-79.227V982.651h79.227Z" fill="url(#linear-gradient)"/>
        <rect id="Rectangle_151" data-name="Rectangle 151" width="11.318" height="5.659" transform="translate(1565.68 988.31)" fill="url(#linear-gradient)"/>
        <rect id="Rectangle_152" data-name="Rectangle 152" width="11.318" height="5.659" transform="translate(1622.271 988.31)" fill="url(#linear-gradient)"/>
        <rect id="Rectangle_153" data-name="Rectangle 153" width="33.954" height="5.659" transform="translate(1582.657 988.31)" fill="url(#linear-gradient)"/>
        <rect id="Rectangle_154" data-name="Rectangle 154" width="5.659" height="5.659" transform="translate(1568.51 894.936)" fill="url(#linear-gradient)"/>
        <rect id="Rectangle_155" data-name="Rectangle 155" width="5.659" height="5.659" transform="translate(1565.68 909.084)" fill="url(#linear-gradient)"/>
        <rect id="Rectangle_156" data-name="Rectangle 156" width="5.659" height="5.659" transform="translate(1619.441 900.595)" fill="url(#linear-gradient)"/>
        <rect id="Rectangle_157" data-name="Rectangle 157" width="5.659" height="5.659" transform="translate(1627.93 911.913)" fill="url(#linear-gradient)"/>
      </g>
    </g>
    <path id="Path_633" data-name="Path 633" d="M1590.24,986.1s-19.476,67.27,15.664,66.011,54.2-26.547,54.2-26.547-4.54-28.044-12.394-30.51C1611.776,983.769,1590.24,986.1,1590.24,986.1Z" fill="#ffd1b1"/>
    <path id="Path_634" data-name="Path 634" d="M1733.712,925.349c-26.53,19.8-90.47,68.064-100.883,80.871-9.065,11.148,12.141,25.449,21.141,24.959,11.209-.611,76.48-47.78,103.62-68.177,5.946-4.469,16.139-12.047,9.657-45.43C1767.247,917.572,1739.995,920.659,1733.712,925.349Z" fill="#ffd1b1"/>
    <path id="Path_635" data-name="Path 635" d="M1642.587,1597.263s-76.122,70.651-41.267,84.425c19.369,7.654,61.559-10.144,76.506-27.411s33.311-40.276,38.734-46.814c2.266-2.732,16.023-10.526-6.041-32.841-3.472-3.511-14.586-28.174-10.805-5.813,3.076,18.194-29.412,78.281-48.517,74.121-22.123-4.817-27.058-8.256-21.5-21.486C1637.681,1602.418,1642.587,1597.263,1642.587,1597.263Z" fill="#242424"/>
    <path id="Path_636" data-name="Path 636" d="M1460.558,1572.774c11.8-10.05,24.634-15.155,28.293-11.254,15.45,16.474,52.516,56.614,56.942,67.23,3.853,9.241-18.307,20.916-25.577,20.462-9.052-.564-57.763-35.735-73.524-52.7-3.453-3.717,2.671-14.2,13.866-23.737Z" fill="#ffd1b1"/>
    <path id="Path_637" data-name="Path 637" d="M1520.853,1596.645s82.963,62.477,49.7,79.751c-18.482,9.6-62.274-3.781-78.913-19.426s-37.263-36.649-43.328-42.6c-2.534-2.486-17.018-8.829,2.643-33.287,3.094-3.85,11.622-29.521,10.153-6.891-1.195,18.414,37.281,74.854,55.858,68.758,21.513-7.059,26.07-10.986,19.189-23.577C1526.262,1601.269,1520.853,1596.645,1520.853,1596.645Z" fill="#242424"/>
    <path id="Path_638" data-name="Path 638" d="M1483.493,1196.23s15.926,101.005,15.926,130.369-34.569,171.45-34.569,171.45,9.449-78.087,20.382-149.461c0,0,3.078-3.246,1.909-9.88-3.279-18.611-12.1-142.481-12.1-142.481Z" fill="#c49b87" opacity="0.1"/>
    <path id="Path_639" data-name="Path 639" d="M1666.047,1141.441s-5.636,153.846-6.025,186.063,24.372,166.453,36.76,176.147c0,0-15.619-119.41-25.163-171.824l1.114-7.248c7-57.7,10.4-147.7,10.4-147.7Z" fill="#c49b87" opacity="0.1"/>
    <ellipse id="Ellipse_121" data-name="Ellipse 121" cx="6.591" cy="12.598" rx="6.591" ry="12.598" transform="translate(1352.461 904.845) rotate(-7.496)" fill="#fcbda4" opacity="0.6"/>
    <ellipse id="Ellipse_122" data-name="Ellipse 122" cx="21.836" cy="11.096" rx="21.836" ry="11.096" transform="translate(1533.923 1353.222) rotate(-78.558)" fill="#fcbda4" opacity="0.6"/>
    <ellipse id="Ellipse_123" data-name="Ellipse 123" cx="11.096" cy="23.097" rx="11.096" ry="23.097" transform="translate(1590.421 1309.89) rotate(-11.442)" fill="#fcbda4" opacity="0.6"/>
    <path id="Path_640" data-name="Path 640" d="M1545.733,396.548s4.868,7.6,5.138,14.435" fill="none" stroke="#eb9c7e" stroke-linecap="round" stroke-linejoin="round" stroke-width="1" opacity="0.3"/>
    <path id="Path_641" data-name="Path 641" d="M1565.416,396.548s-4.867,7.6-5.138,14.435" fill="none" stroke="#eb9c7e" stroke-linecap="round" stroke-linejoin="round" stroke-width="1" opacity="0.3"/>
    <g id="Group_314" data-name="Group 314">
      <path id="Path_642" data-name="Path 642" d="M1582.56,522.342h-47.422c-8.64,0-12.827-2.895-12.827-11.535h0c0-8.639,15.927-9.517,24.5-10.61,9.159-1.168,26.619-7.911,35.752-9.271,8.545-1.273,15.708,7.068,15.708,15.708h0A15.754,15.754,0,0,1,1582.56,522.342Z" fill="#eb9c7e"/>
      <path id="Path_643" data-name="Path 643" d="M1523.712,513.007c.439-5.623,20.007-4.035,34.116-4.267s38.193-.654,37.768,4.627c-.725,9.023-10.809,9.285-30.185,9.085C1541.85,522.209,1522.638,526.78,1523.712,513.007Z" fill="#f16946"/>
      <path id="Path_644" data-name="Path 644" d="M1597.757,506.633l-73.783-.064c-.723.306,2.844-2.606,5.469-3.366,7.351-2.128,9.49-1.83,20.361-3.614,9.112-1.5,24.352-7.6,32.756-8.663,10.535-1.328,13.315,7.107,14.151,8.736C1597.41,501.023,1598.938,506.633,1597.757,506.633Z" fill="#fff"/>
    </g>
  </g>
</svg>
