<svg xmlns="http://www.w3.org/2000/svg" width="416.695" height="1597.596" viewBox="0 0 416.695 1597.596">
  <g id="Group_314" data-name="Group 314" transform="translate(-2621.419 -90.749)">
    <path id="Path_585" data-name="Path 585" d="M2913.512,1027.078c-25-1.045-46.253,12.587-46.843,30.046-2.493,73.723-7.836,252.158-2.531,288.219,4.619,31.392,62.07,20.531,70.692,4.334,10.736-20.168,17.863-215.537,20.24-291.151.52-16.567-17.834-30.458-41.558-31.448Z" fill="#ffd1b1"/>
    <path id="Path_586" data-name="Path 586" d="M2991.26,357.955c0-34.872-40.745-64.922-99.426-78.591-21.663-5.046-51.293-188.615-76.7-188.615-22.894,0-39.213,183.041-59.161,187.186-62.146,12.913-105.917,43.876-105.917,80.02a44.85,44.85,0,0,0,.881,8.839c8.736,43.594,81.388,77.612,169.72,77.612C2914.88,444.406,2991.26,405.7,2991.26,357.955Z" fill="#030504"/>
    <path id="Path_587" data-name="Path 587" d="M2902.277,315.322c10.025,6.478,58.845,36.4,69.481,117.206s-12.173,229.483-20.184,251.673-118.881-13.443-100.595-69.9-30-265.3-19.427-296.712C2835.38,306.213,2876.43,298.622,2902.277,315.322Z" fill="#00182d"/>
    <path id="Path_588" data-name="Path 588" d="M2748.24,315.322c-10.025,6.478-58.845,36.4-69.481,117.206s12.173,229.483,20.184,251.673,118.881-13.443,100.595-69.9,30-265.3,19.427-296.712C2815.137,306.213,2774.087,298.622,2748.24,315.322Z" fill="#00182d"/>
    <path id="Path_589" data-name="Path 589" d="M2765.636,332.519c-6.267,5.839-36.785,32.809-43.434,105.656s14.123,220.976,16.29,241.482c1.419,13.44,69.965-14.851,62.319-59.989-8.711-51.428,15.644-256.787,9.037-285.106C2807.455,324.307,2781.794,317.464,2765.636,332.519Z" fill="#b7a5cf"/>
    <path id="Path_590" data-name="Path 590" d="M2949.117,687.537c9.234,1.725,23.252-88.476,12.573-173.578s-35.679-101.412-35.679-101.412-1.6,31.076,7.177,136.743c5.356,64.446.909,86.089,3.816,90.735C2942.726,649.171,2937.067,685.286,2949.117,687.537Z" fill="#002037"/>
    <path id="Path_591" data-name="Path 591" d="M2884.881,332.961c6.267,6.135,36.785,34.471,43.434,111.005s-7.61,217.34-12.618,238.356-64.567-26.818-66.539-44.364c-6.114-54.423-15.1-273.1-8.489-302.849C2843.062,324.334,2868.723,317.145,2884.881,332.961Z" fill="#b7a5cf"/>
    <path id="Path_592" data-name="Path 592" d="M2780.313,562.241s19.653,37.05-15.814,63.1-77.79-9.291-101.529,16.764-19.791,103.6-20.18,106.031c-6.627,41.4,59.75-45.366,74.589-43.1,84.892,12.971,11.908,343.3,11.908,343.3l199.424,1.787s-12.528-305.7-7.809-317.043c2.133-5.127-6.477-23.457,9.8-25.677,10.272-1.4,8.6,26.386,20.544,17.276,12.687-9.676,43.569,16.819,52.3-1.867,7.99-17.1-4.973-79.61-17.642-85.379-47.024-21.412-102.858-7.221-116.254-20.162-13.661-13.2-11.355-45.311-.114-56.678C2884.141,545.835,2780.313,562.241,2780.313,562.241Z" fill="#ffd1b1"/>
    <path id="Path_593" data-name="Path 593" d="M2825.422,574.025h-7.828c-25.421,0-44.058-14.068-61.054-30.385-17.929-17.212-33.53-37.382-33.53-64.2,0,0-3.4-76.112,0-101.176,1.795-13.233,23.214-33.128,44.114-44.114,12.433-6.535,29.983-14.108,54.384-14.108s43.052,6.06,61.2,16.542c15.218,8.792,35.859,29.408,37.3,41.68,2.952,25.121,0,101.176,0,101.176,0,27.483-16.6,48.123-35.313,65.4C2867.835,560.41,2850.176,574.025,2825.422,574.025Z" fill="#f5e0d6"/>
    <path id="Path_594" data-name="Path 594" d="M2926.314,375.854c-1.442-12.271-22.082-32.888-37.3-41.68-18.145-10.482-36.8-16.542-61.2-16.542-2.071,0-4.074.073-6.047.177,21.169,1.019,38.04,6.869,54.479,16.365,15.218,8.792,35.859,29.409,37.3,41.68,2.952,25.121,0,101.177,0,101.177,0,27.483-16.6,48.123-35.313,65.4-16.3,15.046-33.342,28.268-56.822,29.132q1.233.045,2.487.047h7.829c27.642,0,39.524-10.948,59.27-29.179,18.717-17.281,35.313-37.921,35.313-65.4C2926.314,477.031,2929.266,400.975,2926.314,375.854Z" fill="#f7e3d9"/>
    <path id="Path_595" data-name="Path 595" d="M2829.25,448.364c0,7.333-.492,15.741-.492,15.741-.737,3.671-.741,8.763-2.608,8.763-4.977,0-9.013-9.511-9.013-21.245s4.036-21.245,9.013-21.245S2829.25,436.63,2829.25,448.364Z" fill="#fcbda4"/>
    <path id="Path_596" data-name="Path 596" d="M2891.862,395.744c.2.809-4.5-1.742-9.8.024-3.588,1.2-10.87,3.427-15.777,4.622-12.163,2.964-14.931-.851-15.261-2.206s9.437-.637,21.6-3.6S2891.531,394.39,2891.862,395.744Z" fill="#00182d"/>
    <path id="Path_597" data-name="Path 597" d="M2751.058,404.061c.144.819,3.421-3.4,8.988-3.914,3.765-.347,11.331-1.226,16.305-2.1,12.329-2.169,14.866-2.841,14.625-4.214s-10.432-.728-22.761,1.441S2750.817,402.687,2751.058,404.061Z" fill="#00182d"/>
    <ellipse id="Ellipse_115" data-name="Ellipse 115" cx="24.914" cy="16.084" rx="24.914" ry="16.084" transform="matrix(0.943, -0.332, 0.332, 0.943, 2742.491, 466.029)" fill="#a9cdb8" opacity="0.2"/>
    <ellipse id="Ellipse_116" data-name="Ellipse 116" cx="16.084" cy="24.914" rx="16.084" ry="24.914" transform="matrix(0.332, -0.943, 0.943, 0.332, 2851.801, 481.835)" fill="#a9cdb8" opacity="0.2"/>
    <path id="Path_598" data-name="Path 598" d="M2765.971,541.187c-17.092-17.213-31.964-37.383-31.964-64.2,0,0-3.242-76.112,0-101.177,1.711-13.232,22.13-33.127,42.054-44.113,10.857-5.986,25.823-12.825,46.135-13.935-2.073-.1-4.175-.173-6.34-.173-23.261,0-39.993,7.572-51.846,14.108-19.924,10.986-40.343,30.881-42.054,44.113-3.242,25.065,0,101.177,0,101.177,0,26.816,14.873,46.986,31.965,64.2,16.2,16.316,33.97,30.385,58.2,30.385h7.463c.766,0,1.524-.016,2.275-.044C2798.8,570.666,2781.654,556.98,2765.971,541.187Z" fill="#e0bea6"/>
    <path id="Path_599" data-name="Path 599" d="M2818.965,317.59c-2.409,20.316,25.353,21.732,64.312,47.74s57.738,69.95,57.738,69.95,12.5-52.014,0-78.022-40.8-58.816-96.238-54.7C2822.976,304.17,2819.994,308.914,2818.965,317.59Z" fill="#00182d"/>
    <path id="Path_600" data-name="Path 600" d="M2820.5,326.381c4.319-3.319,99.777,49.43,107.13,84.983C2931.283,429.046,2809.848,334.562,2820.5,326.381Z" fill="#b7a5cf"/>
    <g id="Group_311" data-name="Group 311">
      <path id="Path_601" data-name="Path 601" d="M2778.91,408.25c-13.212-4.306-24.4.094-28.845,5.018s.284,9.182,1.224,9.71c1.225.69,11.393,9.521,38.506,6.48,8.056-.9,12.749,1.9,12.463-.333S2791.5,412.353,2778.91,408.25Z" fill="#fff"/>
      <circle id="Ellipse_117" data-name="Ellipse 117" cx="8.707" cy="8.707" r="8.707" transform="translate(2768.843 412.128)" fill="#60bcdc"/>
      <circle id="Ellipse_118" data-name="Ellipse 118" cx="3.372" cy="3.372" r="3.372" transform="translate(2774.168 417.522)" fill="#080909"/>
      <path id="Path_602" data-name="Path 602" d="M2746.621,415.782s17.971-3.474,31.448-.742c12.244,2.482,24.066,16.06,24.206,14.742.336-3.162-7.547-11.453-7.547-11.453s-7-8.76-20.928-11.421S2742.914,409.671,2746.621,415.782Z" fill="#ffd1b1"/>
    </g>
    <g id="Group_312" data-name="Group 312">
      <path id="Path_603" data-name="Path 603" d="M2869.786,409.118c13.328-3.933,24.391.781,28.693,5.828s-.543,9.17-1.5,9.672c-1.244.655-11.657,9.2-38.674,5.393-8.027-1.13-12.8,1.545-12.448-.684S2857.091,412.864,2869.786,409.118Z" fill="#fff"/>
      <circle id="Ellipse_119" data-name="Ellipse 119" cx="8.707" cy="8.707" r="8.707" transform="translate(2864.962 412.661)" fill="#60bcdc"/>
      <circle id="Ellipse_120" data-name="Ellipse 120" cx="3.372" cy="3.372" r="3.372" transform="translate(2870.3 418.056)" fill="#080909"/>
      <path id="Path_604" data-name="Path 604" d="M2901.851,417.556s-10.948-6.931-29.76-2.516c-10.731,2.518-26.163,16.265-26.266,14.943-.247-3.17,7.866-11.236,7.866-11.236s7.246-8.559,21.241-10.827S2905.729,411.552,2901.851,417.556Z" fill="#ffd1b1"/>
    </g>
    <path id="Path_605" data-name="Path 605" d="M2714.777,435.894s16.852-45.2,33.936-59.309,49.649-31.045,65.564-42.338c11.339-8.045,4.688-16.615,4.688-16.615s-11.627-13.492-33.8-6.907-58.675,15.054-70.387,45.161S2714.777,435.894,2714.777,435.894Z" fill="#00182d"/>
    <path id="Path_606" data-name="Path 606" d="M2719.285,424.8s41.9-50.626,53.318-60.724,33.182-22.214,43.82-30.295c7.578-5.756,3.133-11.889,3.133-11.889s-7.771-9.654-22.591-4.941-39.215,10.771-47.043,32.314S2719.285,424.8,2719.285,424.8Z" fill="#002037"/>
    <path id="Path_607" data-name="Path 607" d="M2820.5,326.381s27.918-6.928,69.92,25.943c32.161,25.17,58.263,60.223,58.263,60.223,6.422-7.632-12.946-58.151-47.31-78.782s-73.5-17.07-79.594-16.175S2820.5,326.381,2820.5,326.381Z" fill="#002037"/>
    <path id="Path_608" data-name="Path 608" d="M2820.672,326.306c-10.648,8.182,110.787,102.666,107.13,84.984" fill="#c0b2d5"/>
    <path id="Path_609" data-name="Path 609" d="M2897.746,1316.314c-20.828,4.305-35.415,20.323-32.155,35.306,13.766,63.271,47.652,216.264,59.762,245.856,10.542,25.761,39.687,3.671,43.317-11.906,4.52-19.4-15.662-186.265-29.93-251.121-3.126-14.21-21.231-22.221-40.994-18.135Z" fill="#ffd1b1"/>
    <path id="Path_610" data-name="Path 610" d="M2967.638,1572.167c-12.766-8.787-26.057-12.55-29.3-8.294-13.681,17.97-46.436,61.7-49.751,72.712-2.885,9.587,20.354,18.929,27.539,17.733,8.947-1.49,53.8-41.468,67.735-59.96,3.054-4.052-4.112-13.853-16.226-22.191Z" fill="#ffd1b1"/>
    <path id="Path_611" data-name="Path 611" d="M2778.291,1031.907c24.755-1.044,45.8,12.587,46.381,30.046,2.468,73.724,7.758,252.159,2.5,288.22-4.573,31.391-61.457,20.531-69.994,4.334-10.63-20.169-17.687-215.537-20.04-291.151-.516-16.568,17.657-30.458,41.148-31.449Z" fill="#ffd1b1"/>
    <path id="Path_612" data-name="Path 612" d="M2796.25,1313.284c20.021,3.882,34.013,19.707,30.842,34.882-13.387,64.077-46.335,219.034-58.051,249.128-10.2,26.2-38.178,4.571-41.632-11.051-4.3-19.453,15.5-188.093,29.372-253.779,3.04-14.392,20.472-22.864,39.469-19.18Z" fill="#ffd1b1"/>
    <path id="Path_613" data-name="Path 613" d="M2702.856,641.27c18.734,3.537,31.523,19.522,28.19,35.235-14.073,66.348-48.643,226.809-60.356,258.1-10.2,27.235-36,5.6-38.888-10.424-3.593-19.949,18.932-194.208,33.5-262.225,3.192-14.9,19.778-24.038,37.555-20.682Z" fill="#ffd1b1"/>
    <path id="Path_614" data-name="Path 614" d="M2961.7,641.814c18.8-3.226,36.44,8.479,38.9,25.8,10.366,73.141,36.661,239.693,36.8,276.04.118,31.64-33.448,29.432-41.834,14.07-10.442-19.13-51.183-205.951-61.679-280.983-2.3-16.44,9.988-31.866,27.823-34.927Z" fill="#ffd1b1"/>
    <path id="Path_615" data-name="Path 615" d="M2986.027,1183.051c-15.729-30.582-32.669-253.111-37.446-319.919a5.207,5.207,0,0,0,.484-3.087c-4.154-27.878-2.366-89.021-14.7-127.322-11.339-35.212-7.006-97.173-6.233-106.939a1.281,1.281,0,0,0-1.216-1.38l-39.868-2.069a1.273,1.273,0,0,0-1.149.589c-4.516,7.126-48.781,62.027-61.733,63.911-28.691,4.173-52.6-50.851-58.077-62.144a1.275,1.275,0,0,0-1.383-.7l-49.079,8.926a1.283,1.283,0,0,0-1.051,1.378c.684,7.555,4.332,50.474,2.8,90.323-1.241,32.353-9.867,82.291-7.123,114.282l-.241-.005s.949,97.187-2.259,175.938-27.227,185.391-27.227,185.391,201.778,6.563,212.707-17.176,26.794-64.855,26.794-64.855l35.6,73.828S2997.579,1205.511,2986.027,1183.051Z" fill="#00182d"/>
    <path id="Path_616" data-name="Path 616" d="M2682.6,884.5l-46.012-14.844a2.108,2.108,0,0,1-1.452-2.238c2.072-18.765,20.582-185.919,23.458-194.369,1.523-4.477,5.2-17.208,10.8-25.881a32.928,32.928,0,0,1,22.476-14.927c11.536-1.708,40.04,2.83,40.04,2.83l2.658,69.976-9.043.3-40.211,177.609A2.113,2.113,0,0,1,2682.6,884.5Z" fill="#00182d" opacity="0.3"/>
    <path id="Path_617" data-name="Path 617" d="M2980.021,889.819l47.7-17.328a3.063,3.063,0,0,0,2-3.264c-2.815-22.269-24.148-190.519-27.074-198.853-1.567-4.462-5.924-19.2-11.6-27.822s-18.042-10.6-26.1-12.877c-16.964-4.8-40.319-5.963-40.319-5.963l-4.448,89.616s18-9.925,20.331,4.147c9.662,58.248,31.107,151.354,35.478,170.153A3.07,3.07,0,0,0,2980.021,889.819Z" fill="#00182d" opacity="0.3"/>
    <path id="Path_618" data-name="Path 618" d="M2783.317,598.336a92.591,92.591,0,0,0,37.529,6.4c19.028-.69,40.458-6.532,40.458-6.532l1.085,4.965s-16.421,5.617-40.653,6.685c-25.257,1.112-39.732-7.475-39.732-7.475Z" fill="#00182d"/>
    <path id="Path_619" data-name="Path 619" d="M2780.313,562.241s18.971,9.242,32.016,9.373c13.253.134,24.089.361,30.748-.712,20.5-3.3,26.461-10.3,26.461-10.3s-10.392,10.471-14.389,13.3c-9.031,6.4-19.906,7.138-29.533,7.674-6.086.339-20.31-1.686-29.146-6.26A59.5,59.5,0,0,1,2780.313,562.241Z" fill="#c49b87" opacity="0.3"/>
    <path id="Path_620" data-name="Path 620" d="M2660.244,359.392c.414-42.532,85.423-65.653,154.628-66.778,103.717-1.687,186.164,32.027,165.295,85.328-5.634,14.39-3.576,13.243-3.576,13.243s12.795-8.964,14.669-32.467-11.994-39.169-30.092-52.8-46.924-24.324-69.334-29.55c-50.552-11.786-122.724-6.122-146.109.907-22.4,6.732-63.29,15.9-83.866,46.035-16.118,23.607-12.45,31.738-10.919,40.488C2652.39,372.082,2659.906,394.023,2660.244,359.392Z" fill="#242424"/>
    <path id="Path_621" data-name="Path 621" d="M2820.452,99.985c-7.6-.188,37.473,134.843,42.082,152.781,4.392,17.091,11.038,14.671,11.038,14.671s-32.171-117.829-40.088-139.868C2827.9,112.027,2826.2,100.128,2820.452,99.985Z" fill="#fff" opacity="0.2"/>
    <path id="Path_622" data-name="Path 622" d="M2652.921,908.368c32.885,3.807,112.411,13.433,127.864,19.19,13.453,5.012,2.407,27.485-5.6,31.469-9.97,4.96-89.836,7.191-122.563-1.836-40.166-11.078-28.718-38.129-31.2-43.977C2621.419,913.214,2645.133,907.466,2652.921,908.368Z" fill="#ffd1b1"/>
    <path id="Path_623" data-name="Path 623" d="M2731.6,411.812s16.525-21.224,35.514-48.859,53.233-36.722,53.233-36.722-7.453,2.776-21.819,19.424S2731.6,411.812,2731.6,411.812Z" fill="#b7a5cf"/>
    <path id="Path_624" data-name="Path 624" d="M2749.669,415.753s5.689-25.165,24.678-52.8,46-36.722,46-36.722-.217,2.776-14.583,19.424S2749.669,415.753,2749.669,415.753Z" fill="#00182d"/>
    <path id="Path_625" data-name="Path 625" d="M2854.665,903.638S2800.32,947.81,2829.91,966.8s59.667,9.082,59.667,9.082,12.254-25.629,7.206-32.132C2873.686,914,2854.665,903.638,2854.665,903.638Z" fill="#ffd1b1"/>
    <path id="Path_626" data-name="Path 626" d="M2804.643,900.186s35.195,60.545.8,67.839-59.02-12.622-59.02-12.622-2.391-28.308,4.632-32.6C2783.185,903.147,2804.643,900.186,2804.643,900.186Z" fill="#ffd1b1"/>
    <path id="Path_627" data-name="Path 627" d="M3007.175,935.5c-33.086,1.15-113.131,4.358-128.987,8.944-13.8,3.993-4.53,27.831,3.145,32.559,9.557,5.887,90.073,4.335,124,3.045,7.433-.283,26.776-.824,32.782-35.767C3038.114,944.285,3015.01,935.232,3007.175,935.5Z" fill="#ffd1b1"/>
    <path id="Path_628" data-name="Path 628" d="M2910.107,1602.093s-76.122,70.651-41.266,84.425c19.368,7.654,61.559-10.144,76.506-27.412s33.311-40.276,38.733-46.813c2.267-2.732,16.024-10.527-6.04-32.841-3.473-3.512-14.587-28.174-10.806-5.814,3.077,18.194-29.412,78.281-48.516,74.122-22.124-4.817-27.059-8.256-21.505-21.486C2905.2,1607.247,2910.107,1602.093,2910.107,1602.093Z" fill="#242424"/>
    <path id="Path_629" data-name="Path 629" d="M2728.078,1577.6c11.8-10.049,24.634-15.154,28.293-11.253,15.451,16.473,52.516,56.614,56.942,67.23,3.853,9.241-18.307,20.915-25.576,20.462-9.053-.565-57.764-35.735-73.524-52.7-3.454-3.718,2.67-14.2,13.865-23.737Z" fill="#ffd1b1"/>
    <path id="Path_630" data-name="Path 630" d="M2788.373,1601.475s82.963,62.476,49.7,79.75c-18.482,9.6-62.274-3.781-78.912-19.425s-37.264-36.65-43.328-42.6c-2.535-2.485-17.018-8.829,2.642-33.287,3.095-3.849,11.622-29.521,10.153-6.891-1.2,18.414,37.281,74.854,55.858,68.759,21.514-7.059,26.07-10.986,19.189-23.577C2793.782,1606.1,2788.373,1601.475,2788.373,1601.475Z" fill="#242424"/>
    <path id="Path_631" data-name="Path 631" d="M2751.014,1201.059s15.926,101.006,15.926,130.369-34.57,171.45-34.57,171.45,9.449-78.087,20.383-149.46c0,0,3.077-3.247,1.908-9.88-3.279-18.612-12.1-142.481-12.1-142.481Z" fill="#c49b87" opacity="0.1"/>
    <path id="Path_632" data-name="Path 632" d="M2933.568,1146.271s-5.637,153.845-6.026,186.062,24.372,166.454,36.76,176.148c0,0-15.618-119.41-25.163-171.825l1.114-7.248c7-57.7,10.4-147.7,10.4-147.7Z" fill="#c49b87" opacity="0.1"/>
    <ellipse id="Ellipse_121" data-name="Ellipse 121" cx="21.836" cy="11.096" rx="21.836" ry="11.096" transform="translate(2801.443 1358.052) rotate(-78.558)" fill="#fcbda4" opacity="0.6"/>
    <ellipse id="Ellipse_122" data-name="Ellipse 122" cx="11.096" cy="23.097" rx="11.096" ry="23.097" transform="translate(2857.941 1314.719) rotate(-11.442)" fill="#fcbda4" opacity="0.6"/>
    <g id="Group_313" data-name="Group 313">
      <path id="Path_633" data-name="Path 633" d="M2850.081,527.172c-4.79-.308-8.9-1.148-19.155-1.267-7.073-.082-28.268,1.267-28.268,1.267-11.469,0-17.213-8.138-14.495-21.2l.778-2.075c6.54-10.2,16.817,2.225,25.387,1.132,9.16-1.168,26.62-7.91,35.753-9.271,8.545-1.273,15.708,7.069,15.708,15.708h0C2865.789,520.1,2862.364,527.96,2850.081,527.172Z" fill="#eb9c7e"/>
      <path id="Path_634" data-name="Path 634" d="M2791.232,517.836c-.7-5.595,20.008-4.034,34.116-4.266s40.256-.051,37.769,4.626c-6.016,11.313-5.58,9.568-30.01,7.714C2809.611,524.127,2793.19,533.435,2791.232,517.836Z" fill="#f16946"/>
      <path id="Path_635" data-name="Path 635" d="M2865.277,511.463l-77.593.434c-.724.306.016-5.568,1.257-8,2.637-5.175,7.062-5.026,13.415-2.252,5.616,2.452,12.545,2.559,16.229,2.119,9.355-1.116,23.091-6.947,31.5-8.006,10.534-1.327,13.315,7.108,14.151,8.736C2864.93,505.852,2866.458,511.463,2865.277,511.463Z" fill="#fff"/>
    </g>
    <path id="Path_636" data-name="Path 636" d="M2753.165,692.984S2718,610.021,2711.558,524.466s10.889-104.329,10.889-104.329,9.165,72.23,21.22,133.662c12.446,63.424,40.4,117.036,38.674,122.143C2778.944,686,2753.165,692.984,2753.165,692.984Z" fill="#002037"/>
    <path id="Path_637" data-name="Path 637" d="M2718.956,450.844s44.829,136.454,69.22,164.635-9.813,70.312-10.457,84.172c-.627,13.489-17.356,17.653-17.356,17.653-15.391-4.635,20.244-52.83-6.6-86.976s-27.217-26.865-32.8-55.068C2715.841,549.441,2718.956,450.844,2718.956,450.844Z" fill="#002037"/>
    <path id="Path_638" data-name="Path 638" d="M2815.279,537.913a25.319,25.319,0,0,1,10.858-2.4c5.479.266,11.694,1.188,11.694,1.188" fill="none" stroke="#ffd1b1" stroke-linecap="round" stroke-linejoin="round" stroke-width="0.5"/>
  </g>
</svg>
