<svg xmlns="http://www.w3.org/2000/svg" width="414.31" height="303.38" viewBox="0 0 414.31 303.38">
  <g id="hiddenbox" opacity="0.11">
    <g id="ear">
      <rect id="Rectangle_143" data-name="Rectangle 143" width="414.31" height="180.76" rx="57.24" fill="#71ccdf"/>
      <path id="Path_585" data-name="Path 585" d="M0,90.38H414.31v203a10,10,0,0,1-10,10H10a10,10,0,0,1-10-10v-203Z" fill="#46c1ca"/>
      <path id="Path_586" data-name="Path 586" d="M379.37,292.55c3.65-11.88-1.48-24-11.46-27.06,10,3.06,21-4.09,24.68-16-3.65,11.88,1.48,24,11.45,27.07C394.07,273.52,383,280.67,379.37,292.55ZM364.7,258.34c-6.65,3.1-14.95-.65-18.54-8.37,3.59,7.72,1.12,16.48-5.53,19.58,6.65-3.1,14.95.65,18.54,8.37C355.58,270.2,358.05,261.44,364.7,258.34Zm18.45-17.63c-5.15-1.56-7.87-7.67-6.06-13.65-1.81,6-7.44,9.57-12.6,8,5.16,1.55,7.87,7.66,6.06,13.64,1.81-5.96,7.45-9.55,12.6-7.99Z" fill="#f6eb0f"/>
      <path id="Path_587" data-name="Path 587" d="M68.85,134.05c-1.06-6.15-6.21-10.4-11.5-9.49,5.29-.91,8.73-6.63,7.67-12.78,1.06,6.15,6.2,10.39,11.5,9.48C71.22,122.17,67.79,127.9,68.85,134.05ZM28.59,155.57c6.3-.94,12.29,4.23,13.38,11.54-1.09-7.31,3.13-14,9.43-14.94-6.3.94-12.29-4.23-13.38-11.55C39.11,147.94,34.89,154.63,28.59,155.57Z" fill="#f6eb0f"/>
      <path id="Path_588" data-name="Path 588" d="M40.34,101.21c-3.71,11.42,1.27,23.27,11.11,26.46-9.84-3.19-20.82,3.49-24.52,14.92,3.7-11.43-1.27-23.27-11.11-26.46C25.66,119.32,36.63,112.63,40.34,101.21Z" fill="#f6eb0f"/>
      <rect id="Rectangle_144" data-name="Rectangle 144" width="47.22" height="63.31" rx="10.71" transform="translate(186.73 75.32)" fill="#ebe84d"/>
      <circle id="Ellipse_115" data-name="Ellipse 115" cx="7.34" cy="7.34" r="7.34" transform="translate(203 99.63)" fill="#686853"/>
      <path id="Path_589" data-name="Path 589" d="M210.34,129.02H203l4.16-20.24h6.04l4.48,20.24Z" fill="#686853"/>
    </g>
  </g>
</svg>
