{
    "asset" : {
        "generator" : "Khronos glTF Blender I/O v1.0.5",
        "version" : "2.0"
    },
    "extensionsUsed" : [
        "KHR_lights_punctual"
    ],
    "extensionsRequired" : [
        "KHR_lights_punctual"
    ],
    "extensions" : {
        "KHR_lights_punctual" : {
            "lights" : [
                {
                    "color" : [
                        0.31373655796051025,
                        0.005346046295017004,
                        1
                    ],
                    "intensity" : 34.20005798339844,
                    "type" : "point",
                    "name" : "Light"
                },
                {
                    "color" : [
                        0.4769901931285858,
                        0.39117830991744995,
                        0.46398988366127014
                    ],
                    "intensity" : 170.39999389648438,
                    "type" : "point",
                    "name" : "Sun"
                }
            ]
        }
    },
    "scene" : 0,
    "scenes" : [
        {
            "name" : "Scene",
            "nodes" : [
                1,
                3,
                4
            ]
        }
    ],
    "nodes" : [
        {
            "extensions" : {
                "KHR_lights_punctual" : {
                    "light" : 0
                }
            },
            "name" : "Light_Orientation",
            "rotation" : [
                -0.7071067690849304,
                0,
                0,
                0.7071067690849304
            ]
        },
        {
            "children" : [
                0
            ],
            "name" : "Light",
            "rotation" : [
                0.16907575726509094,
                0.7558803558349609,
                -0.27217137813568115,
                0.570947527885437
            ],
            "translation" : [
                -0.299837201833725,
                0.5213961005210876,
                0.07931205630302429
            ]
        },
        {
            "extensions" : {
                "KHR_lights_punctual" : {
                    "light" : 1
                }
            },
            "name" : "Sun_Orientation",
            "rotation" : [
                -0.7071067690849304,
                0,
                0,
                0.7071067690849304
            ]
        },
        {
            "children" : [
                2
            ],
            "name" : "Sun",
            "translation" : [
                0.03969860076904297,
                1.0057339668273926,
                0.6541432738304138
            ]
        },
        {
            "mesh" : 0,
            "name" : "Cube.001",
            "rotation" : [
                0,
                0,
                -0.2294759750366211,
                0.9733143448829651
            ],
            "scale" : [
                0.014708386734127998,
                0.028094686567783356,
                -0.011396678164601326
            ],
            "translation" : [
                0.302949994802475,
                0.1642623245716095,
                0.06027042865753174
            ]
        }
    ],
    "materials" : [
        {
            "doubleSided" : true,
            "name" : "fabricyellow.001",
            "pbrMetallicRoughness" : {
                "baseColorFactor" : [
                    1,
                    0.6583748459815979,
                    0,
                    1
                ],
                "metallicFactor" : 0.02857142873108387,
                "roughnessFactor" : 0.5
            }
        },
        {
            "doubleSided" : true,
            "name" : "fabricyellow",
            "pbrMetallicRoughness" : {
                "baseColorFactor" : [
                    1,
                    0.6583748459815979,
                    0,
                    1
                ],
                "metallicFactor" : 0.02857142873108387,
                "roughnessFactor" : 0.5
            }
        }
    ],
    "meshes" : [
        {
            "name" : "Cube.003",
            "primitives" : [
                {
                    "attributes" : {
                        "POSITION" : 0,
                        "NORMAL" : 1,
                        "TEXCOORD_0" : 2
                    },
                    "indices" : 3,
                    "material" : 0
                },
                {
                    "attributes" : {
                        "POSITION" : 4,
                        "NORMAL" : 5,
                        "TEXCOORD_0" : 6
                    },
                    "indices" : 7,
                    "material" : 1
                }
            ]
        }
    ],
    "accessors" : [
        {
            "bufferView" : 0,
            "componentType" : 5126,
            "count" : 24,
            "max" : [
                1,
                1,
                1
            ],
            "min" : [
                -1,
                -1,
                -1
            ],
            "type" : "VEC3"
        },
        {
            "bufferView" : 1,
            "componentType" : 5126,
            "count" : 24,
            "type" : "VEC3"
        },
        {
            "bufferView" : 2,
            "componentType" : 5126,
            "count" : 24,
            "type" : "VEC2"
        },
        {
            "bufferView" : 3,
            "componentType" : 5123,
            "count" : 36,
            "type" : "SCALAR"
        },
        {
            "bufferView" : 4,
            "componentType" : 5126,
            "count" : 280,
            "max" : [
                9.096908569335938,
                6.756426811218262,
                4.438525676727295
            ],
            "min" : [
                -58.606666564941406,
                -4.572262287139893,
                -2.87257719039917
            ],
            "type" : "VEC3"
        },
        {
            "bufferView" : 5,
            "componentType" : 5126,
            "count" : 280,
            "type" : "VEC3"
        },
        {
            "bufferView" : 6,
            "componentType" : 5126,
            "count" : 280,
            "type" : "VEC2"
        },
        {
            "bufferView" : 7,
            "componentType" : 5123,
            "count" : 717,
            "type" : "SCALAR"
        }
    ],
    "bufferViews" : [
        {
            "buffer" : 0,
            "byteLength" : 288,
            "byteOffset" : 0
        },
        {
            "buffer" : 0,
            "byteLength" : 288,
            "byteOffset" : 288
        },
        {
            "buffer" : 0,
            "byteLength" : 192,
            "byteOffset" : 576
        },
        {
            "buffer" : 0,
            "byteLength" : 72,
            "byteOffset" : 768
        },
        {
            "buffer" : 0,
            "byteLength" : 3360,
            "byteOffset" : 840
        },
        {
            "buffer" : 0,
            "byteLength" : 3360,
            "byteOffset" : 4200
        },
        {
            "buffer" : 0,
            "byteLength" : 2240,
            "byteOffset" : 7560
        },
        {
            "buffer" : 0,
            "byteLength" : 1434,
            "byteOffset" : 9800
        }
    ],
    "buffers" : [
        {
            "byteLength" : 11236,
            "uri" : "key.bin"
        }
    ]
}
