<svg id="Layer_2" data-name="Layer 2" xmlns="http://www.w3.org/2000/svg" width="122.938" height="257.02" viewBox="0 0 122.938 257.02">
  <g id="Layer_33" data-name="Layer 33">
    <path id="Path_616" data-name="Path 616" d="M202.244,385.794s-22.468-59.891,0-139.484h5.622s-23.672,57.63,0,139.5Z" transform="translate(-141.173 -180.863)" fill="#78bc20"/>
    <path id="Path_617" data-name="Path 617" d="M161.416,753.665H103.34a5.58,5.58,0,0,1-5.58-5.58V681.94a5.58,5.58,0,0,1,5.58-5.58h58.076a5.58,5.58,0,0,1,5.58,5.58v66.138a5.58,5.58,0,0,1-5.58,5.588Z" transform="translate(-71.784 -496.645)" fill="#d89a36"/>
    <path id="Path_618" data-name="Path 618" d="M136.579,695.042H62.051a9.361,9.361,0,0,1-9.361-9.361h0a9.361,9.361,0,0,1,9.361-9.361h74.529a9.361,9.361,0,0,1,9.361,9.361h0A9.361,9.361,0,0,1,136.579,695.042Z" transform="translate(-38.69 -496.616)" fill="#d69230"/>
    <path id="Path_619" data-name="Path 619" d="M185.2,0s-28.484,31.811-13.1,48.067,13.1,13.169,13.1,13.169l13.15-13.24S214.666,36.328,185.2,0Z" transform="translate(-123.028)" fill="#a18cf9"/>
    <path id="Path_620" data-name="Path 620" d="M292.8,177.963s-31.8-28.471-48.067-13.086-13.169,13.086-13.169,13.086l13.24,13.15S256.487,207.438,292.8,177.963Z" transform="translate(-169.866 -117.719)" fill="#a18cf9"/>
    <path id="Path_621" data-name="Path 621" d="M0,177.968s31.811,28.473,48.067,13.081,13.169-13.086,13.169-13.086l-13.24-13.147S36.328,148.5,0,177.968Z" transform="translate(0 -117.714)" fill="#a18cf9"/>
    <path id="Path_622" data-name="Path 622" d="M182.562,288.219s28.473-31.811,13.086-48.067-13.086-13.169-13.086-13.169l-13.15,13.24S153.089,251.891,182.562,288.219Z" transform="translate(-121.087 -166.5)" fill="#a18cf9"/>
    <path id="Path_623" data-name="Path 623" d="M272.266,271.18s-2.872-42.6-25.242-42.938-18.562.165-18.562.165l.287,18.658S225.685,266.883,272.266,271.18Z" transform="translate(-167.577 -167.509)" fill="#baaeff"/>
    <path id="Path_624" data-name="Path 624" d="M72,273.726s42.6-2.872,42.941-25.242-.167-18.562-.167-18.562l-18.655.29S76.283,227.145,72,273.726Z" transform="translate(-52.869 -168.649)" fill="#baaeff"/>
    <path id="Path_625" data-name="Path 625" d="M276.16,64.35s-42.6,2.872-42.941,25.256.165,18.562.165,18.562l18.658-.29S271.866,110.934,276.16,64.35Z" transform="translate(-171.162 -47.252)" fill="#baaeff"/>
    <path id="Path_626" data-name="Path 626" d="M68,68.32s2.872,42.6,25.242,42.941,18.565-.167,18.565-.167l-.29-18.655S114.587,72.606,68,68.32Z" transform="translate(-49.932 -50.167)" fill="#baaeff"/>
    <path id="Path_627" data-name="Path 627" d="M285.738,135.112s-39.641-15.8-49.637,4.219-7.873,16.811-7.873,16.811l16.952,7.8S261.745,175.268,285.738,135.112Z" transform="translate(-167.448 -94.862)" fill="#d1ccff"/>
    <path id="Path_628" data-name="Path 628" d="M227.057,284.715s15.815-39.654-4.219-49.637-16.811-7.873-16.811-7.873l-7.8,16.952S186.9,260.722,227.057,284.715Z" transform="translate(-144.472 -166.698)" fill="#d1ccff"/>
    <path id="Path_629" data-name="Path 629" d="M135.479,9.64S119.664,49.294,139.7,59.277s16.809,7.873,16.809,7.873l7.8-16.95S175.638,33.649,135.479,9.64Z" transform="translate(-95.128 -7.079)" fill="#d1ccff"/>
    <path id="Path_630" data-name="Path 630" d="M14.08,222.625s39.654,15.815,49.634-4.219,7.876-16.814,7.876-16.814l-16.952-7.8S38.073,182.466,14.08,222.625Z" transform="translate(-10.339 -141.217)" fill="#d1ccff"/>
    <path id="Path_631" data-name="Path 631" d="M237.593,21.15S198.372,38.007,205.48,59.231,211.8,76.686,211.8,76.686l17.5-6.467S249.024,66.512,237.593,21.15Z" transform="translate(-150.25 -15.53)" fill="#e0deff"/>
    <path id="Path_632" data-name="Path 632" d="M286.464,232s-16.857-39.224-38.081-32.116-17.457,6.321-17.457,6.321l6.473,17.5S241.1,243.424,286.464,232Z" transform="translate(-169.377 -146.138)" fill="#e0deff"/>
    <path id="Path_633" data-name="Path 633" d="M21,118.424s16.862,39.224,38.087,32.116,17.446-6.321,17.446-6.321l-6.47-17.5S66.367,107,21,118.424Z" transform="translate(-15.42 -84.342)" fill="#e0deff"/>
    <path id="Path_634" data-name="Path 634" d="M123.564,281.33s39.216-16.857,32.114-38.081-6.321-17.454-6.321-17.454l-17.5,6.467S112.135,235.968,123.564,281.33Z" transform="translate(-88.115 -165.608)" fill="#e0deff"/>
    <circle id="Ellipse_118" data-name="Ellipse 118" cx="17.691" cy="17.691" r="17.691" transform="translate(44.442 39.684)" fill="#fcef75"/>
    <path id="Path_635" data-name="Path 635" d="M205.58,500.634s7.857-33.384,50.373-24.334C255.953,476.3,244.081,499.555,205.58,500.634Z" transform="translate(-150.956 -348.601)" fill="#78bc20"/>
    <path id="Path_636" data-name="Path 636" d="M55.307,541.2S46.682,504.545,0,514.48C0,514.48,13.036,540.015,55.307,541.2Z" transform="translate(0 -376.524)" fill="#78bc20"/>
  </g>
</svg>
