<svg xmlns="http://www.w3.org/2000/svg" width="205" height="75" viewBox="0 0 205 75">
  <g id="Group_249" data-name="Group 249" transform="translate(-54.434 -538.002)">
    <g id="Group_108" data-name="Group 108" transform="translate(227.202 591.872)">
      <rect id="Rectangle_65" data-name="Rectangle 65" width="3.215" height="3.215" transform="translate(15.229 2.469) rotate(140.163)" fill="#fff" stroke="#76c7e2" stroke-width="1"/>
      <rect id="Rectangle_66" data-name="Rectangle 66" width="9.845" height="9.845" transform="translate(15.687 11.851) rotate(140.163)" fill="#fff" stroke="#76c7e2" stroke-width="1"/>
      <rect id="Rectangle_67" data-name="Rectangle 67" width="4.527" height="4.527" transform="translate(6.376 4.466) rotate(140.163)" fill="#fff" stroke="#76c7e2" stroke-width="1"/>
    </g>
    <g id="Group_225" data-name="Group 225" transform="translate(57.538 538.002)">
      <g id="Group_224" data-name="Group 224">
        <path id="Path_185" data-name="Path 185" d="M330.017,501.921c1.267-4.307,46.927,5.313,101.983,21.486,42.89,12.6,78.832,25.463,92.239,32.686,3.528,1.9,5.44,3.453,5.16,4.406" transform="translate(-330.017 -494.477)" fill="none" stroke="#fff" stroke-linecap="round" stroke-linejoin="round" stroke-width="5"/>
        <g id="Group_105" data-name="Group 105" transform="translate(109.463 27.491)">
          <rect id="Rectangle_59" data-name="Rectangle 59" width="2.368" height="2.368" transform="matrix(0.981, -0.194, 0.194, 0.981, 0, 7.636)" fill="#fff" stroke="#76c7e2" stroke-width="1"/>
          <rect id="Rectangle_60" data-name="Rectangle 60" width="7.252" height="7.252" transform="matrix(0.981, -0.194, 0.194, 0.981, 3.016, 1.409)" fill="#fff" stroke="#76c7e2" stroke-width="1"/>
          <rect id="Rectangle_61" data-name="Rectangle 61" width="3.334" height="3.334" transform="matrix(0.981, -0.194, 0.194, 0.981, 6.429, 9.47)" fill="#fff" stroke="#76c7e2" stroke-width="1"/>
        </g>
        <g id="Group_184" data-name="Group 184" transform="translate(27.667 6.47)">
          <path id="Path_200" data-name="Path 200" d="M552.13,482.65a8.535,8.535,0,0,1-2.307-6.34l.2-50.931a7.311,7.311,0,0,1,8.127-8.057l24.367.1q11.143.043,17.3,5.731t6.128,15.781q-.043,10-6.3,15.682t-17.3,5.645L567.4,460.2l-.063,16.184a8.478,8.478,0,0,1-2.405,6.321,8.844,8.844,0,0,1-6.483,2.307A8.55,8.55,0,0,1,552.13,482.65Zm27.89-35.541q4.855.019,7.2-1.971t2.355-6.178q.034-8.282-9.485-8.32l-12.566-.051-.067,16.469Z" transform="translate(-549.823 -417.103)" fill="#fff"/>
          <path id="Path_201" data-name="Path 201" d="M572.439,483.057a8.573,8.573,0,0,1-2.307-6.343l.2-50.928a8.42,8.42,0,0,1,2.355-6.226,8.56,8.56,0,0,1,6.34-2.307,8.843,8.843,0,0,1,6.464,2.358,8.339,8.339,0,0,1,2.358,6.245l-.2,50.928a8.453,8.453,0,0,1-2.405,6.321,8.845,8.845,0,0,1-6.483,2.31A8.561,8.561,0,0,1,572.439,483.057Z" transform="translate(-505.685 -417.253)" fill="#fff"/>
          <path id="Path_202" data-name="Path 202" d="M639.188,477.722a7.641,7.641,0,0,1-2.545,5.655,7.978,7.978,0,0,1-5.674,2.4,7.475,7.475,0,0,1-5.794-2.878l-16.3-19.674L592.137,482.77a7.393,7.393,0,0,1-5.721,2.834,7.907,7.907,0,0,1-5.655-2.5,7.784,7.784,0,0,1-2.5-5.725,7.863,7.863,0,0,1,2.021-5.131l18.361-21.061-17.72-20.728a7.884,7.884,0,0,1-2.075-5.147,7.625,7.625,0,0,1,2.545-5.655,8.075,8.075,0,0,1,5.769-2.405,7.486,7.486,0,0,1,5.8,2.878l16.012,19.1,16.066-18.976a6.95,6.95,0,0,1,5.629-2.834,8.085,8.085,0,0,1,5.75,2.45,7.626,7.626,0,0,1,2.5,5.677,7.845,7.845,0,0,1-2.018,5.131l-17.884,20.588,18.1,21.2A7.763,7.763,0,0,1,639.188,477.722Z" transform="translate(-488.019 -417.249)" fill="#fff"/>
        </g>
        <path id="Path_189" data-name="Path 189" d="M529.822,565.5c-1.752,5.965-47.752-4.217-102.811-20.39-15.416-4.529-29.9-9.2-42.806-13.728-32.925-11.561-54.745-19.527-53.484-23.824" transform="translate(-330.575 -499.443)" fill="none" stroke="#fff" stroke-miterlimit="10" stroke-width="4"/>
        <g id="Group_107" data-name="Group 107" transform="translate(11.174 9.76)">
          <rect id="Rectangle_62" data-name="Rectangle 62" width="2.767" height="2.767" transform="matrix(0.752, -0.659, 0.659, 0.752, 0.591, 13.647)" fill="#fff" stroke="#76c7e2" stroke-width="1"/>
          <rect id="Rectangle_63" data-name="Rectangle 63" width="8.473" height="8.473" transform="matrix(0.752, -0.659, 0.659, 0.752, 0, 5.585)" fill="#fff" stroke="#76c7e2" stroke-width="1"/>
          <rect id="Rectangle_64" data-name="Rectangle 64" width="3.896" height="3.896" transform="matrix(0.752, -0.659, 0.659, 0.752, 8.166, 11.743)" fill="#fff" stroke="#76c7e2" stroke-width="1"/>
        </g>
        <g id="Group_109" data-name="Group 109" transform="translate(117.461 0.489)">
          <rect id="Rectangle_68" data-name="Rectangle 68" width="2.368" height="2.368" transform="translate(8.753 0.671) rotate(106.472)" fill="#fff"/>
          <rect id="Rectangle_69" data-name="Rectangle 69" width="7.252" height="7.252" transform="translate(12.867 6.235) rotate(106.472)" fill="#fff"/>
          <rect id="Rectangle_70" data-name="Rectangle 70" width="3.334" height="3.334" transform="translate(4.143 5.513) rotate(106.472)" fill="#fff"/>
        </g>
        <g id="Group_110" data-name="Group 110" transform="translate(91.618 0.931)">
          <rect id="Rectangle_71" data-name="Rectangle 71" width="2.368" height="2.368" transform="translate(12.297 10.859) rotate(-139.964)" fill="#fff"/>
          <rect id="Rectangle_72" data-name="Rectangle 72" width="7.252" height="7.252" transform="translate(5.552 12.406) rotate(-139.964)" fill="#fff"/>
          <rect id="Rectangle_73" data-name="Rectangle 73" width="3.334" height="3.334" transform="translate(9.702 4.698) rotate(-139.964)" fill="#fff"/>
        </g>
        <g id="Group_112" data-name="Group 112" transform="translate(31.797 0)">
          <rect id="Rectangle_77" data-name="Rectangle 77" width="2.368" height="2.368" transform="matrix(-0.584, 0.811, -0.811, -0.584, 10.604, 1.384)" fill="#fff"/>
          <rect id="Rectangle_78" data-name="Rectangle 78" width="7.252" height="7.252" transform="matrix(-0.584, 0.811, -0.811, -0.584, 12.65, 7.994)" fill="#fff"/>
          <rect id="Rectangle_79" data-name="Rectangle 79" width="3.334" height="3.334" transform="matrix(-0.584, 0.811, -0.811, -0.584, 4.654, 4.431)" fill="#fff"/>
        </g>
        <g id="Group_114" data-name="Group 114" transform="matrix(0.978, 0.208, -0.208, 0.978, 63.818, 43.866)">
          <rect id="Rectangle_83" data-name="Rectangle 83" width="1.899" height="1.899" transform="translate(3.934 9.673) rotate(-82.2)" fill="#fff"/>
          <rect id="Rectangle_84" data-name="Rectangle 84" width="5.815" height="5.815" transform="translate(0 5.761) rotate(-82.2)" fill="#fff"/>
          <rect id="Rectangle_85" data-name="Rectangle 85" width="2.674" height="2.674" transform="translate(7.002 5.278) rotate(-82.2)" fill="#fff"/>
        </g>
        <rect id="Rectangle_80" data-name="Rectangle 80" width="2.368" height="2.368" transform="translate(162.796 38.226) rotate(-73.42)" fill="#fff"/>
        <rect id="Rectangle_81" data-name="Rectangle 81" width="7.252" height="7.252" transform="translate(158.692 32.655) rotate(-73.42)" fill="#fff"/>
      </g>
    </g>
    <rect id="Rectangle_82" data-name="Rectangle 82" width="3.334" height="3.334" transform="translate(224.953 571.395) rotate(-73.42)" fill="#fff"/>
  </g>
</svg>
