<svg xmlns="http://www.w3.org/2000/svg" width="450.211" height="1062.139" viewBox="0 0 450.211 1062.139">
  <g id="Group_383" data-name="Group 383" transform="translate(-34.254 -79.778)" opacity="0.56">
    <g id="Group_103" data-name="Group 103" transform="translate(110.403 220.041) rotate(-69)" opacity="0.25">
      <g id="Group_57" data-name="Group 57" transform="translate(75.326 54.502)">
        <path id="Path_73" data-name="Path 73" d="M31.528,6.321C18.016,14.417,14.414,13.515,6.324,0,14.414,13.515,13.509,17.111,0,25.207c13.509-8.1,17.115-7.191,25.2,6.321C17.115,18.016,18.016,14.417,31.528,6.321Z" fill="#76c7e2"/>
      </g>
      <g id="Group_58" data-name="Group 58" transform="translate(107.24 69.862)">
        <path id="Path_74" data-name="Path 74" d="M16.509,0C27.788,24.027,26.453,25.951,0,23.707c26.453,2.243,27.444,4.36,12.284,26.143,15.16-21.787,17.5-21.584,28.779,2.443C29.784,28.266,31.115,26.339,57.568,28.6,31.119,26.343,30.124,24.227,45.284,2.44,30.124,24.227,27.788,24.027,16.509,0Z" fill="#76c7e2"/>
      </g>
      <g id="Group_59" data-name="Group 59" transform="translate(96.415 0)">
        <path id="Path_75" data-name="Path 75" d="M53.828,33.045C30.764,27.784,27.788,23.06,33.056,0,27.788,23.057,23.077,26.026,0,20.765c23.077,5.261,26.043,9.985,20.779,33.056C26.043,30.754,30.764,27.784,53.828,33.045Z" fill="#76c7e2"/>
      </g>
      <g id="Group_63" data-name="Group 63" transform="translate(62.268 52.899)">
        <path id="Path_79" data-name="Path 79" d="M12.1,6.424C6.916,6.1,6.1,5.185,6.427,0,6.1,5.185,5.189,6,0,5.674,5.189,6,6,6.909,5.677,12.1,6,6.909,6.916,6.1,12.1,6.424Z" fill="#76c7e2"/>
      </g>
      <g id="Group_64" data-name="Group 64" transform="translate(38.712 26.012)">
        <path id="Path_80" data-name="Path 80" d="M12.1,6.424C6.916,6.1,6.1,5.185,6.427,0,6.1,5.185,5.189,6,0,5.674,5.189,6,6,6.909,5.674,12.1,6,6.909,6.916,6.1,12.1,6.424Z" fill="#76c7e2"/>
      </g>
      <g id="Group_65" data-name="Group 65" transform="translate(0 29.501)">
        <path id="Path_81" data-name="Path 81" d="M27.987,7.663C15.993,13.089,13.089,11.995,7.663,0,13.085,12,11.991,14.9,0,20.321c11.988-5.419,14.9-4.328,20.318,7.67C14.9,15.993,15.993,13.089,27.987,7.663Z" fill="#76c7e2"/>
      </g>
      <g id="Group_66" data-name="Group 66" transform="translate(91.312 122.634)">
        <path id="Path_82" data-name="Path 82" d="M27.988,7.663C15.993,13.089,13.085,11.995,7.663,0,13.085,11.995,11.988,14.9,0,20.321c11.988-5.419,14.9-4.332,20.321,7.666C14.9,15.989,15.993,13.089,27.988,7.663Z" fill="#76c7e2"/>
      </g>
    </g>
    <g id="Group_381" data-name="Group 381" transform="translate(378.227 498.708) rotate(45)" opacity="0.25">
      <g id="Group_57-2" data-name="Group 57" transform="translate(75.326 54.502)">
        <path id="Path_73-2" data-name="Path 73" d="M31.528,6.321C18.016,14.417,14.414,13.515,6.324,0,14.414,13.515,13.509,17.111,0,25.207c13.509-8.1,17.115-7.191,25.2,6.321C17.115,18.016,18.016,14.417,31.528,6.321Z" fill="#76c7e2"/>
      </g>
      <g id="Group_58-2" data-name="Group 58" transform="translate(107.24 69.862)">
        <path id="Path_74-2" data-name="Path 74" d="M16.509,0C27.788,24.027,26.453,25.951,0,23.707c26.453,2.243,27.444,4.36,12.284,26.143,15.16-21.787,17.5-21.584,28.779,2.443C29.784,28.266,31.115,26.339,57.568,28.6,31.119,26.343,30.124,24.227,45.284,2.44,30.124,24.227,27.788,24.027,16.509,0Z" fill="#76c7e2"/>
      </g>
      <g id="Group_59-2" data-name="Group 59" transform="translate(96.415 0)">
        <path id="Path_75-2" data-name="Path 75" d="M53.828,33.045C30.764,27.784,27.788,23.06,33.056,0,27.788,23.057,23.077,26.026,0,20.765c23.077,5.261,26.043,9.985,20.779,33.056C26.043,30.754,30.764,27.784,53.828,33.045Z" fill="#76c7e2"/>
      </g>
      <g id="Group_63-2" data-name="Group 63" transform="translate(62.268 52.899)">
        <path id="Path_79-2" data-name="Path 79" d="M12.1,6.424C6.916,6.1,6.1,5.185,6.427,0,6.1,5.185,5.189,6,0,5.674,5.189,6,6,6.909,5.677,12.1,6,6.909,6.916,6.1,12.1,6.424Z" fill="#76c7e2"/>
      </g>
      <g id="Group_64-2" data-name="Group 64" transform="translate(38.712 26.012)">
        <path id="Path_80-2" data-name="Path 80" d="M12.1,6.424C6.916,6.1,6.1,5.185,6.427,0,6.1,5.185,5.189,6,0,5.674,5.189,6,6,6.909,5.674,12.1,6,6.909,6.916,6.1,12.1,6.424Z" fill="#76c7e2"/>
      </g>
      <g id="Group_65-2" data-name="Group 65" transform="translate(0 29.501)">
        <path id="Path_81-2" data-name="Path 81" d="M27.987,7.663C15.993,13.089,13.089,11.995,7.663,0,13.085,12,11.991,14.9,0,20.321c11.988-5.419,14.9-4.328,20.318,7.67C14.9,15.993,15.993,13.089,27.987,7.663Z" fill="#76c7e2"/>
      </g>
      <g id="Group_66-2" data-name="Group 66" transform="translate(91.312 122.634)">
        <path id="Path_82-2" data-name="Path 82" d="M27.988,7.663C15.993,13.089,13.085,11.995,7.663,0,13.085,11.995,11.988,14.9,0,20.321c11.988-5.419,14.9-4.332,20.321,7.666C14.9,15.989,15.993,13.089,27.988,7.663Z" fill="#76c7e2"/>
      </g>
    </g>
    <g id="Group_382" data-name="Group 382" transform="matrix(-0.105, -0.995, 0.995, -0.105, 49.958, 1145)" opacity="0.25">
      <g id="Group_57-3" data-name="Group 57" transform="translate(75.326 54.502)">
        <path id="Path_73-3" data-name="Path 73" d="M31.528,6.321C18.016,14.417,14.414,13.515,6.324,0,14.414,13.515,13.509,17.111,0,25.207c13.509-8.1,17.115-7.191,25.2,6.321C17.115,18.016,18.016,14.417,31.528,6.321Z" fill="#76c7e2"/>
      </g>
      <g id="Group_58-3" data-name="Group 58" transform="translate(107.24 69.862)">
        <path id="Path_74-3" data-name="Path 74" d="M16.509,0C27.788,24.027,26.453,25.951,0,23.707c26.453,2.243,27.444,4.36,12.284,26.143,15.16-21.787,17.5-21.584,28.779,2.443C29.784,28.266,31.115,26.339,57.568,28.6,31.119,26.343,30.124,24.227,45.284,2.44,30.124,24.227,27.788,24.027,16.509,0Z" fill="#76c7e2"/>
      </g>
      <g id="Group_59-3" data-name="Group 59" transform="translate(96.415 0)">
        <path id="Path_75-3" data-name="Path 75" d="M53.828,33.045C30.764,27.784,27.788,23.06,33.056,0,27.788,23.057,23.077,26.026,0,20.765c23.077,5.261,26.043,9.985,20.779,33.056C26.043,30.754,30.764,27.784,53.828,33.045Z" fill="#76c7e2"/>
      </g>
      <g id="Group_63-3" data-name="Group 63" transform="translate(62.268 52.899)">
        <path id="Path_79-3" data-name="Path 79" d="M12.1,6.424C6.916,6.1,6.1,5.185,6.427,0,6.1,5.185,5.189,6,0,5.674,5.189,6,6,6.909,5.677,12.1,6,6.909,6.916,6.1,12.1,6.424Z" fill="#76c7e2"/>
      </g>
      <g id="Group_64-3" data-name="Group 64" transform="translate(38.712 26.012)">
        <path id="Path_80-3" data-name="Path 80" d="M12.1,6.424C6.916,6.1,6.1,5.185,6.427,0,6.1,5.185,5.189,6,0,5.674,5.189,6,6,6.909,5.674,12.1,6,6.909,6.916,6.1,12.1,6.424Z" fill="#76c7e2"/>
      </g>
      <g id="Group_65-3" data-name="Group 65" transform="translate(0 29.501)">
        <path id="Path_81-3" data-name="Path 81" d="M27.987,7.663C15.993,13.089,13.089,11.995,7.663,0,13.085,12,11.991,14.9,0,20.321c11.988-5.419,14.9-4.328,20.318,7.67C14.9,15.993,15.993,13.089,27.987,7.663Z" fill="#76c7e2"/>
      </g>
      <g id="Group_66-3" data-name="Group 66" transform="translate(91.312 122.634)">
        <path id="Path_82-3" data-name="Path 82" d="M27.988,7.663C15.993,13.089,13.085,11.995,7.663,0,13.085,11.995,11.988,14.9,0,20.321c11.988-5.419,14.9-4.332,20.321,7.666C14.9,15.989,15.993,13.089,27.988,7.663Z" fill="#76c7e2"/>
      </g>
    </g>
  </g>
</svg>
