{
    "asset" : {
        "generator" : "Khronos glTF Blender I/O v1.0.5",
        "version" : "2.0"
    },
    "scene" : 0,
    "scenes" : [
        {
            "name" : "Scene",
            "nodes" : [
                0,
                1,
                2,
                3,
                4
            ]
        }
    ],
    "nodes" : [
        {
            "name" : "Light",
            "rotation" : [
                0.16907575726509094,
                0.7558803558349609,
                -0.27217137813568115,
                0.570947527885437
            ],
            "translation" : [
                1.0739598274230957,
                0.8766169548034668,
                0.5272061824798584
            ]
        },
        {
            "mesh" : 0,
            "name" : "Torus.005",
            "scale" : [
                0.06121382862329483,
                0.06121382862329483,
                0.06121382862329483
            ],
            "translation" : [
                -0.006854969076812267,
                -0.007666770368814468,
                0.009553298354148865
            ]
        },
        {
            "mesh" : 1,
            "name" : "glowpink",
            "rotation" : [
                0,
                0.7320912480354309,
                0,
                0.6812065839767456
            ],
            "scale" : [
                0.06509648263454437,
                0.11253317445516586,
                0.06509648263454437
            ],
            "translation" : [
                -0.005404440686106682,
                0.13337934017181396,
                0.008802622556686401
            ]
        },
        {
            "mesh" : 2,
            "name" : "Cube.000",
            "rotation" : [
                -0.386825293302536,
                0,
                0,
                0.9221529960632324
            ],
            "scale" : [
                0.002356005599722266,
                0.0044188653118908405,
                0.004441480152308941
            ],
            "translation" : [
                -0.01565760374069214,
                0.6565902233123779,
                -0.019725285470485687
            ]
        },
        {
            "name" : "Sun",
            "translation" : [
                -0.4896821677684784,
                0.73405921459198,
                -0.9025828838348389
            ]
        }
    ],
    "materials" : [
        {
            "doubleSided" : true,
            "name" : "glass ref.002",
            "pbrMetallicRoughness" : {
                "baseColorFactor" : [
                    0.37626221776008606,
                    0.16826936602592468,
                    1,
                    1
                ],
                "metallicFactor" : 0,
                "roughnessFactor" : 0
            }
        },
        {
            "doubleSided" : true,
            "name" : "Material",
            "pbrMetallicRoughness" : {
                "baseColorFactor" : [
                    0,
                    1,
                    0.8199836611747742,
                    1
                ],
                "metallicFactor" : 0,
                "roughnessFactor" : 0.4000000059604645
            }
        },
        {
            "doubleSided" : true,
            "name" : "glass ref.000",
            "pbrMetallicRoughness" : {
                "baseColorFactor" : [
                    0.18230435252189636,
                    0.11348628252744675,
                    1,
                    1
                ],
                "metallicFactor" : 0,
                "roughnessFactor" : 0
            }
        },
        {
            "doubleSided" : true,
            "emissiveFactor" : [
                0,
                1,
                0.041312702000141144
            ],
            "name" : "pinkglow",
            "pbrMetallicRoughness" : {}
        },
        {
            "doubleSided" : true,
            "emissiveFactor" : [
                0.39217609167099,
                0.6494598984718323,
                1
            ],
            "name" : "pinkglow.002",
            "pbrMetallicRoughness" : {}
        }
    ],
    "meshes" : [
        {
            "name" : "Torus.005",
            "primitives" : [
                {
                    "attributes" : {
                        "POSITION" : 0,
                        "NORMAL" : 1,
                        "TEXCOORD_0" : 2
                    },
                    "indices" : 3,
                    "material" : 0
                },
                {
                    "attributes" : {
                        "POSITION" : 4,
                        "NORMAL" : 5,
                        "TEXCOORD_0" : 6
                    },
                    "indices" : 7,
                    "material" : 1
                },
                {
                    "attributes" : {
                        "POSITION" : 8,
                        "NORMAL" : 9,
                        "TEXCOORD_0" : 10
                    },
                    "indices" : 11,
                    "material" : 2
                }
            ]
        },
        {
            "name" : "Cylinder.008",
            "primitives" : [
                {
                    "attributes" : {
                        "POSITION" : 12,
                        "NORMAL" : 13,
                        "TEXCOORD_0" : 14
                    },
                    "indices" : 15,
                    "material" : 3
                }
            ]
        },
        {
            "name" : "Cube.001",
            "primitives" : [
                {
                    "attributes" : {
                        "POSITION" : 16,
                        "NORMAL" : 17,
                        "TEXCOORD_0" : 18
                    },
                    "indices" : 19,
                    "material" : 4
                }
            ]
        }
    ],
    "accessors" : [
        {
            "bufferView" : 0,
            "componentType" : 5126,
            "count" : 650,
            "max" : [
                2.8681535720825195,
                10.712555885314941,
                2.841252326965332
            ],
            "min" : [
                -2.510356903076172,
                -0.1385640650987625,
                -2.7981698513031006
            ],
            "type" : "VEC3"
        },
        {
            "bufferView" : 1,
            "componentType" : 5126,
            "count" : 650,
            "type" : "VEC3"
        },
        {
            "bufferView" : 2,
            "componentType" : 5126,
            "count" : 650,
            "type" : "VEC2"
        },
        {
            "bufferView" : 3,
            "componentType" : 5123,
            "count" : 990,
            "type" : "SCALAR"
        },
        {
            "bufferView" : 4,
            "componentType" : 5126,
            "count" : 79,
            "max" : [
                0.9915106296539307,
                9.484113693237305,
                0.9429823160171509
            ],
            "min" : [
                -0.8021487593650818,
                8.984088897705078,
                -0.9429822564125061
            ],
            "type" : "VEC3"
        },
        {
            "bufferView" : 5,
            "componentType" : 5126,
            "count" : 79,
            "type" : "VEC3"
        },
        {
            "bufferView" : 6,
            "componentType" : 5126,
            "count" : 79,
            "type" : "VEC2"
        },
        {
            "bufferView" : 7,
            "componentType" : 5123,
            "count" : 270,
            "type" : "SCALAR"
        },
        {
            "bufferView" : 8,
            "componentType" : 5126,
            "count" : 566,
            "max" : [
                3.102971315383911,
                10.712555885314941,
                2.9511005878448486
            ],
            "min" : [
                -2.510356903076172,
                -0.1385640650987625,
                -2.9511005878448486
            ],
            "type" : "VEC3"
        },
        {
            "bufferView" : 9,
            "componentType" : 5126,
            "count" : 566,
            "type" : "VEC3"
        },
        {
            "bufferView" : 10,
            "componentType" : 5126,
            "count" : 566,
            "type" : "VEC2"
        },
        {
            "bufferView" : 11,
            "componentType" : 5123,
            "count" : 870,
            "type" : "SCALAR"
        },
        {
            "bufferView" : 12,
            "componentType" : 5126,
            "count" : 78,
            "max" : [
                1.747807264328003,
                1.1655956506729126,
                1.6939959526062012
            ],
            "min" : [
                -1.6637935638427734,
                -1,
                -1.8270905017852783
            ],
            "type" : "VEC3"
        },
        {
            "bufferView" : 13,
            "componentType" : 5126,
            "count" : 78,
            "type" : "VEC3"
        },
        {
            "bufferView" : 14,
            "componentType" : 5126,
            "count" : 78,
            "type" : "VEC2"
        },
        {
            "bufferView" : 15,
            "componentType" : 5123,
            "count" : 144,
            "type" : "SCALAR"
        },
        {
            "bufferView" : 16,
            "componentType" : 5126,
            "count" : 384,
            "max" : [
                18.33698081970215,
                12.989171981811523,
                24.821666717529297
            ],
            "min" : [
                -20.970027923583984,
                -8.84699535369873,
                -0.9999966025352478
            ],
            "type" : "VEC3"
        },
        {
            "bufferView" : 17,
            "componentType" : 5126,
            "count" : 384,
            "type" : "VEC3"
        },
        {
            "bufferView" : 18,
            "componentType" : 5126,
            "count" : 384,
            "type" : "VEC2"
        },
        {
            "bufferView" : 19,
            "componentType" : 5123,
            "count" : 576,
            "type" : "SCALAR"
        }
    ],
    "bufferViews" : [
        {
            "buffer" : 0,
            "byteLength" : 7800,
            "byteOffset" : 0
        },
        {
            "buffer" : 0,
            "byteLength" : 7800,
            "byteOffset" : 7800
        },
        {
            "buffer" : 0,
            "byteLength" : 5200,
            "byteOffset" : 15600
        },
        {
            "buffer" : 0,
            "byteLength" : 1980,
            "byteOffset" : 20800
        },
        {
            "buffer" : 0,
            "byteLength" : 948,
            "byteOffset" : 22780
        },
        {
            "buffer" : 0,
            "byteLength" : 948,
            "byteOffset" : 23728
        },
        {
            "buffer" : 0,
            "byteLength" : 632,
            "byteOffset" : 24676
        },
        {
            "buffer" : 0,
            "byteLength" : 540,
            "byteOffset" : 25308
        },
        {
            "buffer" : 0,
            "byteLength" : 6792,
            "byteOffset" : 25848
        },
        {
            "buffer" : 0,
            "byteLength" : 6792,
            "byteOffset" : 32640
        },
        {
            "buffer" : 0,
            "byteLength" : 4528,
            "byteOffset" : 39432
        },
        {
            "buffer" : 0,
            "byteLength" : 1740,
            "byteOffset" : 43960
        },
        {
            "buffer" : 0,
            "byteLength" : 936,
            "byteOffset" : 45700
        },
        {
            "buffer" : 0,
            "byteLength" : 936,
            "byteOffset" : 46636
        },
        {
            "buffer" : 0,
            "byteLength" : 624,
            "byteOffset" : 47572
        },
        {
            "buffer" : 0,
            "byteLength" : 288,
            "byteOffset" : 48196
        },
        {
            "buffer" : 0,
            "byteLength" : 4608,
            "byteOffset" : 48484
        },
        {
            "buffer" : 0,
            "byteLength" : 4608,
            "byteOffset" : 53092
        },
        {
            "buffer" : 0,
            "byteLength" : 3072,
            "byteOffset" : 57700
        },
        {
            "buffer" : 0,
            "byteLength" : 1152,
            "byteOffset" : 60772
        }
    ],
    "buffers" : [
        {
            "byteLength" : 61924,
            "uri" : "potion.bin"
        }
    ]
}
