{
    "asset" : {
        "generator" : "Khronos glTF Blender I/O v1.0.5",
        "version" : "2.0"
    },
    "scene" : 0,
    "scenes" : [
        {
            "name" : "Scene",
            "nodes" : [
                0,
                1,
                2
            ]
        }
    ],
    "nodes" : [
        {
            "name" : "Light",
            "rotation" : [
                0.16907575726509094,
                0.7558803558349609,
                -0.27217137813568115,
                0.570947527885437
            ],
            "translation" : [
                1.0739598274230957,
                0.8766169548034668,
                0.5272061824798584
            ]
        },
        {
            "mesh" : 0,
            "name" : "Torus.005",
            "scale" : [
                0.06121382862329483,
                0.06121382862329483,
                0.06121382862329483
            ],
            "translation" : [
                -0.006854969076812267,
                -0.007666770368814468,
                0.009553298354148865
            ]
        },
        {
            "name" : "Sun",
            "translation" : [
                -0.4896821677684784,
                0.73405921459198,
                -0.9025828838348389
            ]
        }
    ],
    "materials" : [
        {
            "doubleSided" : true,
            "name" : "glass ref.002",
            "pbrMetallicRoughness" : {
                "baseColorFactor" : [
                    0.37626221776008606,
                    0.16826936602592468,
                    1,
                    1
                ],
                "metallicFactor" : 0,
                "roughnessFactor" : 0
            }
        },
        {
            "doubleSided" : true,
            "name" : "Material",
            "pbrMetallicRoughness" : {
                "baseColorFactor" : [
                    0,
                    1,
                    0.8199836611747742,
                    1
                ],
                "metallicFactor" : 0,
                "roughnessFactor" : 0.4000000059604645
            }
        },
        {
            "doubleSided" : true,
            "name" : "glass ref.000",
            "pbrMetallicRoughness" : {
                "baseColorFactor" : [
                    0.18230435252189636,
                    0.11348628252744675,
                    1,
                    1
                ],
                "metallicFactor" : 0,
                "roughnessFactor" : 0
            }
        },
        {
            "doubleSided" : true,
            "emissiveFactor" : [
                0,
                1,
                0.041312702000141144
            ],
            "name" : "pinkglow",
            "pbrMetallicRoughness" : {}
        },
        {
            "doubleSided" : true,
            "emissiveFactor" : [
                0.39217609167099,
                0.6494598984718323,
                1
            ],
            "name" : "pinkglow.002",
            "pbrMetallicRoughness" : {}
        }
    ],
    "meshes" : [
        {
            "name" : "Torus.005",
            "primitives" : [
                {
                    "attributes" : {
                        "POSITION" : 0,
                        "NORMAL" : 1,
                        "TEXCOORD_0" : 2
                    },
                    "indices" : 3,
                    "material" : 0
                },
                {
                    "attributes" : {
                        "POSITION" : 4,
                        "NORMAL" : 5,
                        "TEXCOORD_0" : 6
                    },
                    "indices" : 7,
                    "material" : 1
                },
                {
                    "attributes" : {
                        "POSITION" : 8,
                        "NORMAL" : 9,
                        "TEXCOORD_0" : 10
                    },
                    "indices" : 11,
                    "material" : 2
                },
                {
                    "attributes" : {
                        "POSITION" : 12,
                        "NORMAL" : 13,
                        "TEXCOORD_0" : 14
                    },
                    "indices" : 15,
                    "material" : 3
                },
                {
                    "attributes" : {
                        "POSITION" : 16,
                        "NORMAL" : 17,
                        "TEXCOORD_0" : 18
                    },
                    "indices" : 19,
                    "material" : 4
                }
            ]
        }
    ],
    "accessors" : [
        {
            "bufferView" : 0,
            "componentType" : 5126,
            "count" : 638,
            "max" : [
                2.8681535720825195,
                10.712555885314941,
                2.841252326965332
            ],
            "min" : [
                -2.510356903076172,
                -0.1385640650987625,
                -2.7981698513031006
            ],
            "type" : "VEC3"
        },
        {
            "bufferView" : 1,
            "componentType" : 5126,
            "count" : 638,
            "type" : "VEC3"
        },
        {
            "bufferView" : 2,
            "componentType" : 5126,
            "count" : 638,
            "type" : "VEC2"
        },
        {
            "bufferView" : 3,
            "componentType" : 5123,
            "count" : 990,
            "type" : "SCALAR"
        },
        {
            "bufferView" : 4,
            "componentType" : 5126,
            "count" : 64,
            "max" : [
                0.9915106296539307,
                9.484113693237305,
                0.9429823160171509
            ],
            "min" : [
                -0.8021487593650818,
                8.984088897705078,
                -0.9429822564125061
            ],
            "type" : "VEC3"
        },
        {
            "bufferView" : 5,
            "componentType" : 5126,
            "count" : 64,
            "type" : "VEC3"
        },
        {
            "bufferView" : 6,
            "componentType" : 5126,
            "count" : 64,
            "type" : "VEC2"
        },
        {
            "bufferView" : 7,
            "componentType" : 5123,
            "count" : 270,
            "type" : "SCALAR"
        },
        {
            "bufferView" : 8,
            "componentType" : 5126,
            "count" : 516,
            "max" : [
                3.102971315383911,
                10.712555885314941,
                2.9511005878448486
            ],
            "min" : [
                -2.510356903076172,
                -0.1385640650987625,
                -2.9511005878448486
            ],
            "type" : "VEC3"
        },
        {
            "bufferView" : 9,
            "componentType" : 5126,
            "count" : 516,
            "type" : "VEC3"
        },
        {
            "bufferView" : 10,
            "componentType" : 5126,
            "count" : 516,
            "type" : "VEC2"
        },
        {
            "bufferView" : 11,
            "componentType" : 5123,
            "count" : 870,
            "type" : "SCALAR"
        },
        {
            "bufferView" : 12,
            "componentType" : 5126,
            "count" : 78,
            "max" : [
                1.79025399684906,
                4.446941375732422,
                1.762581467628479
            ],
            "min" : [
                -1.9212710857391357,
                0.4657924175262451,
                -1.846419334411621
            ],
            "type" : "VEC3"
        },
        {
            "bufferView" : 13,
            "componentType" : 5126,
            "count" : 78,
            "type" : "VEC3"
        },
        {
            "bufferView" : 14,
            "componentType" : 5126,
            "count" : 78,
            "type" : "VEC2"
        },
        {
            "bufferView" : 15,
            "componentType" : 5123,
            "count" : 144,
            "type" : "SCALAR"
        },
        {
            "bufferView" : 16,
            "componentType" : 5126,
            "count" : 384,
            "max" : [
                0.56195467710495,
                12.425270080566406,
                0.7859681248664856
            ],
            "min" : [
                -0.9508984684944153,
                10.749073028564453,
                -0.9497548341751099
            ],
            "type" : "VEC3"
        },
        {
            "bufferView" : 17,
            "componentType" : 5126,
            "count" : 384,
            "type" : "VEC3"
        },
        {
            "bufferView" : 18,
            "componentType" : 5126,
            "count" : 384,
            "type" : "VEC2"
        },
        {
            "bufferView" : 19,
            "componentType" : 5123,
            "count" : 576,
            "type" : "SCALAR"
        }
    ],
    "bufferViews" : [
        {
            "buffer" : 0,
            "byteLength" : 7656,
            "byteOffset" : 0
        },
        {
            "buffer" : 0,
            "byteLength" : 7656,
            "byteOffset" : 7656
        },
        {
            "buffer" : 0,
            "byteLength" : 5104,
            "byteOffset" : 15312
        },
        {
            "buffer" : 0,
            "byteLength" : 1980,
            "byteOffset" : 20416
        },
        {
            "buffer" : 0,
            "byteLength" : 768,
            "byteOffset" : 22396
        },
        {
            "buffer" : 0,
            "byteLength" : 768,
            "byteOffset" : 23164
        },
        {
            "buffer" : 0,
            "byteLength" : 512,
            "byteOffset" : 23932
        },
        {
            "buffer" : 0,
            "byteLength" : 540,
            "byteOffset" : 24444
        },
        {
            "buffer" : 0,
            "byteLength" : 6192,
            "byteOffset" : 24984
        },
        {
            "buffer" : 0,
            "byteLength" : 6192,
            "byteOffset" : 31176
        },
        {
            "buffer" : 0,
            "byteLength" : 4128,
            "byteOffset" : 37368
        },
        {
            "buffer" : 0,
            "byteLength" : 1740,
            "byteOffset" : 41496
        },
        {
            "buffer" : 0,
            "byteLength" : 936,
            "byteOffset" : 43236
        },
        {
            "buffer" : 0,
            "byteLength" : 936,
            "byteOffset" : 44172
        },
        {
            "buffer" : 0,
            "byteLength" : 624,
            "byteOffset" : 45108
        },
        {
            "buffer" : 0,
            "byteLength" : 288,
            "byteOffset" : 45732
        },
        {
            "buffer" : 0,
            "byteLength" : 4608,
            "byteOffset" : 46020
        },
        {
            "buffer" : 0,
            "byteLength" : 4608,
            "byteOffset" : 50628
        },
        {
            "buffer" : 0,
            "byteLength" : 3072,
            "byteOffset" : 55236
        },
        {
            "buffer" : 0,
            "byteLength" : 1152,
            "byteOffset" : 58308
        }
    ],
    "buffers" : [
        {
            "byteLength" : 59460,
            "uri" : "potion.bin"
        }
    ]
}
