<svg xmlns="http://www.w3.org/2000/svg" xmlns:xlink="http://www.w3.org/1999/xlink" width="224.069" height="857.6" viewBox="0 0 224.069 857.6">
  <defs>
    <linearGradient id="linear-gradient" y1="0.5" x2="1" y2="0.5" gradientUnits="objectBoundingBox">
      <stop offset="0" stop-color="#bba3cd"/>
      <stop offset="1" stop-color="#58bed7"/>
    </linearGradient>
  </defs>
  <g id="Group_287" data-name="Group 287" transform="translate(-451.586 -446.544)">
    <path id="Path_351" data-name="Path 351" d="M664.824,589.982c0-18.72-21.872-34.851-53.373-42.188-11.629-2.709-27.534-101.25-41.171-101.25-12.29,0-21.05,98.258-31.758,100.483-33.36,6.932-56.857,23.553-56.857,42.955a24.118,24.118,0,0,0,.473,4.745c4.69,23.4,43.69,41.663,91.107,41.663C623.822,636.389,664.824,615.612,664.824,589.982Z" transform="translate(-13.932)" fill="#030504"/>
    <path id="Path_352" data-name="Path 352" d="M700.414,666.621c5.382,3.477,31.588,19.538,37.3,62.917s-6.535,123.188-10.835,135.1-63.816-7.216-54-37.522-16.1-142.414-10.429-159.277C664.5,661.731,686.539,657.656,700.414,666.621Z" transform="translate(-97.289 -99.525)" fill="#00182d"/>
    <path id="Path_353" data-name="Path 353" d="M546.376,666.621c-5.381,3.477-31.588,19.538-37.3,62.917s6.535,123.188,10.835,135.1,63.817-7.216,54-37.522,16.1-142.414,10.429-159.277C582.288,661.731,560.251,657.656,546.376,666.621Z" transform="translate(-25.94 -99.525)" fill="#00182d"/>
    <path id="Path_354" data-name="Path 354" d="M547.572,918.213s-14.393-46.18-13.3-92.224,11.341-55.154,11.341-55.154,1.071,39.07,4.257,72.524c3.29,34.539,15.384,64.659,14.192,67.3C561.712,915.845,547.572,918.213,547.572,918.213Z" transform="translate(-38.271 -150.209)" fill="#002037"/>
    <path id="Path_355" data-name="Path 355" d="M576.517,684.261c-3.364,3.134-19.746,17.612-23.316,56.717s7.582,118.621,8.745,129.629c.762,7.215,37.558-7.972,33.454-32.2-4.677-27.607,8.4-137.845,4.851-153.047C598.966,679.852,585.191,676.179,576.517,684.261Z" transform="translate(-46.743 -107.933)" fill="#b7a5cf"/>
    <path id="Path_356" data-name="Path 356" d="M769.966,915.958c4.957.926,12.482-47.495,6.749-93.178s-19.153-54.439-19.153-54.439-.861,16.682,3.853,73.4c2.875,34.6.487,46.213,2.048,48.707C766.536,895.363,763.5,914.75,769.966,915.958Z" transform="translate(-141.698 -149.055)" fill="#002037"/>
    <path id="Path_357" data-name="Path 357" d="M694.932,684.5c3.364,3.293,19.746,18.5,23.316,59.588s-4.085,116.67-6.773,127.951-34.661-14.4-35.719-23.815c-3.282-29.215-8.1-146.6-4.557-162.571C672.484,679.867,686.259,676.008,694.932,684.5Z" transform="translate(-101.146 -107.933)" fill="#b7a5cf"/>
    <path id="Path_358" data-name="Path 358" d="M548,914.422s10.55,19.889-8.489,33.875-41.758-4.987-54.5,9-10.623,55.614-10.832,56.918c-3.557,22.226,32.074-24.353,40.04-23.136,45.571,6.963,6.392,184.287,6.392,184.287l107.052.959s-6.726-164.1-4.192-170.191c1.145-2.752-3.477-12.592,5.262-13.784,5.514-.752,4.618,14.164,11.029,9.274,6.81-5.194,23.388,9.029,28.074-1,4.29-9.181-2.67-42.735-9.47-45.832-25.243-11.494-55.215-3.876-62.406-10.823-7.333-7.084-6.1-24.323-.061-30.425C603.74,905.615,548,914.422,548,914.422Z" transform="translate(-10.351 -214.778)" fill="#ffd1b1"/>
    <path id="Path_359" data-name="Path 359" d="M609.158,809.724h-4.2c-13.646,0-23.651-7.552-32.774-16.311-9.624-9.24-18-20.067-18-34.462,0,0-1.826-40.857,0-54.312.964-7.1,12.461-17.783,23.68-23.68a60.436,60.436,0,0,1,29.194-7.573,62.281,62.281,0,0,1,32.851,8.88c8.169,4.719,19.249,15.786,20.023,22.374,1.585,13.486,0,54.313,0,54.313,0,14.753-8.909,25.833-18.956,35.109C631.925,802.416,622.446,809.724,609.158,809.724Z" transform="translate(-47.146 -105.071)" fill="#ffd1b1"/>
    <path id="Path_360" data-name="Path 360" d="M709.331,704.681c-.774-6.587-11.854-17.654-20.023-22.374a62.285,62.285,0,0,0-32.851-8.88c-1.112,0-2.187.039-3.246.1a61.986,61.986,0,0,1,29.245,8.785c8.169,4.72,19.249,15.787,20.023,22.374,1.585,13.485,0,54.313,0,54.313,0,14.753-8.909,25.833-18.956,35.109-8.748,8.077-17.9,15.174-30.5,15.638q.662.024,1.335.025h4.2c14.838,0,21.217-5.877,31.817-15.663,10.047-9.277,18.956-20.356,18.956-35.109C709.331,758.993,710.916,718.166,709.331,704.681Z" transform="translate(-93.303 -105.091)" fill="#f7dccd"/>
    <path id="Path_361" data-name="Path 361" d="M653.245,787.828c0,3.936-.264,8.45-.264,8.45-.4,1.971-.4,4.7-1.4,4.7-2.672,0-4.838-5.106-4.838-11.4s2.166-11.4,4.838-11.4S653.245,781.529,653.245,787.828Z" transform="translate(-90.395 -153.608)" fill="#fcbda4"/>
    <path id="Path_362" data-name="Path 362" d="M704.581,748.44c.1.434-2.411-.943-5.262-.005-1.928.635-5.842,1.819-8.478,2.452-6.534,1.568-7.928,1.78-8.1,1.052s4.981-2.589,11.516-4.157S704.407,747.712,704.581,748.44Z" transform="translate(-107.066 -139.212)" fill="#00182d"/>
    <path id="Path_363" data-name="Path 363" d="M577.332,750.578c.052.443,1.938-1.717,4.938-1.82,2.029-.069,6.11-.307,8.8-.622,6.674-.781,8.055-1.062,7.968-1.806s-5.568-.713-12.242.068S577.245,749.834,577.332,750.578Z" transform="translate(-58.244 -138.61)" fill="#00182d"/>
    <ellipse id="Ellipse_36" data-name="Ellipse 36" cx="13.374" cy="8.634" rx="13.374" ry="8.634" transform="matrix(0.943, -0.332, 0.332, 0.943, 512.519, 644.239)" fill="#b7a5cf" opacity="0.6"/>
    <ellipse id="Ellipse_37" data-name="Ellipse 37" cx="8.634" cy="13.374" rx="8.634" ry="13.374" transform="matrix(0.332, -0.943, 0.943, 0.332, 576.566, 651.114)" fill="#b7a5cf" opacity="0.6"/>
    <rect id="Rectangle_105" data-name="Rectangle 105" width="0.329" height="1.489" rx="0.165" transform="translate(559.857 675.036)" fill="#eb9c7e"/>
    <path id="Path_364" data-name="Path 364" d="M644.97,866.336c-1.2.518-10.168,4.238-19.8.451a21.252,21.252,0,0,1-13.255-16.442h0c-.025-2.9,2.673-5.278,6.026-5.306l33.224-.282c3.352-.028,6.09,2.3,6.114,5.2h0a19.592,19.592,0,0,1-5.319,11.363A23.5,23.5,0,0,1,644.97,866.336Z" transform="translate(-74.264 -184.449)" fill="#eb9c7e"/>
    <path id="Path_365" data-name="Path 365" d="M576.157,793.413c-9.624-9.24-18-20.067-18-34.462,0,0-1.825-40.857,0-54.312.964-7.1,12.461-17.783,23.681-23.68a60.94,60.94,0,0,1,25.978-7.48c-1.167-.056-2.351-.093-3.57-.093a60.437,60.437,0,0,0-29.194,7.573c-11.219,5.9-22.717,16.577-23.68,23.68-1.826,13.455,0,54.313,0,54.313,0,14.4,8.374,25.222,18,34.462,9.124,8.758,19.128,16.311,32.774,16.311h4.2q.647,0,1.281-.024C594.644,809.238,584.988,801.891,576.157,793.413Z" transform="translate(-45.845 -105.071)" fill="#d39257"/>
    <path id="Path_366" data-name="Path 366" d="M650.5,666.257c-1.293,10.906,13.61,11.666,34.524,25.627s30.994,37.55,30.994,37.55,6.71-27.922,0-41.883-21.9-31.573-51.661-29.366C652.656,659.053,651.055,661.6,650.5,666.257Z" transform="translate(-92.101 -97.943)" fill="#00182d"/>
    <path id="Path_367" data-name="Path 367" d="M651.795,682.107c2.319-1.782,53.561,26.534,57.509,45.619C711.266,737.218,646.079,686.5,651.795,682.107Z" transform="translate(-92.571 -109.074)" fill="#b7a5cf"/>
    <path id="Path_368" data-name="Path 368" d="M595.734,763.273c-7.289-1.587-13.028,1.367-15.135,4.236s.647,4.889,1.177,5.12c.692.3,6.6,4.471,20.916,1.384,4.254-.917,6.912.33,6.638-.851S602.677,764.785,595.734,763.273Z" transform="translate(-59.395 -146.501)" fill="#fff"/>
    <circle id="Ellipse_38" data-name="Ellipse 38" cx="4.674" cy="4.674" r="4.674" transform="translate(531.617 618.893)" fill="#60bcdc"/>
    <circle id="Ellipse_39" data-name="Ellipse 39" cx="1.81" cy="1.81" r="1.81" transform="translate(534.479 621.789)" fill="#080909"/>
    <path id="Path_369" data-name="Path 369" d="M577.775,768.974s10.364-2.711,16.79-1.639c5.836.973,13.686,6.826,13.69,6.114.009-1.707-4.649-5.71-4.649-5.71a19.854,19.854,0,0,0-11.794-4.971C584.232,762.1,575.466,765.91,577.775,768.974Z" transform="translate(-58.275 -146.437)" fill="#eb9c7e"/>
    <path id="Path_370" data-name="Path 370" d="M690.357,764.251c7.251-1.753,13.056,1.069,15.228,3.889s-.535,4.9-1.06,5.146c-.684.318-6.495,4.62-20.879,1.861-4.273-.819-6.9.488-6.656-.7S683.451,765.921,690.357,764.251Z" transform="translate(-104.398 -146.909)" fill="#fff"/>
    <circle id="Ellipse_40" data-name="Ellipse 40" cx="4.674" cy="4.674" r="4.674" transform="translate(583.04 619.34)" fill="#60bcdc"/>
    <circle id="Ellipse_41" data-name="Ellipse 41" cx="1.81" cy="1.81" r="1.81" transform="translate(585.904 622.236)" fill="#080909"/>
    <path id="Path_371" data-name="Path 371" d="M707.306,769.555s-10.622-3.042-17.022-1.824c-5.813,1.106-13.328,7.7-13.348,6.993-.048-1.706,4.517-5.815,4.517-5.815a19.854,19.854,0,0,1,11.677-5.239C700.694,762.829,709.545,766.439,707.306,769.555Z" transform="translate(-104.38 -146.834)" fill="#eb9c7e"/>
    <path id="Path_372" data-name="Path 372" d="M543.972,732.543s9.046-24.144,18.217-31.683,26.652-16.585,35.2-22.618c6.086-4.3,2.516-8.876,2.516-8.876s-6.241-7.208-18.145-3.689-31.5,8.042-37.784,24.125S543.972,732.543,543.972,732.543Z" transform="translate(-41.498 -101.053)" fill="#00182d"/>
    <path id="Path_373" data-name="Path 373" d="M555.03,724.8s21.575-24.746,27.455-29.682,17.087-10.859,22.564-14.808c3.9-2.814,1.613-5.811,1.613-5.811s-4-4.719-11.633-2.416-20.193,5.265-24.223,15.8S555.03,724.8,555.03,724.8Z" transform="translate(-47.914 -104.175)" fill="#002037"/>
    <path id="Path_374" data-name="Path 374" d="M651.264,677.733s14.987-3.719,37.534,13.926c17.264,13.511,31.276,32.328,31.276,32.328,3.448-4.1-6.95-31.216-25.4-42.291s-39.454-9.163-42.727-8.683S651.264,677.733,651.264,677.733Z" transform="translate(-92.04 -104.7)" fill="#002037"/>
    <path id="Path_375" data-name="Path 375" d="M651.97,682.1c-5.716,4.392,59.472,55.112,57.509,45.62" transform="translate(-92.652 -109.108)" fill="#c0b2d5"/>
    <path id="Path_376" data-name="Path 376" d="M653.092,851.475l-35.006.46c-1.207,0-4.679-2.446-4.7-4.208a5.649,5.649,0,0,1,4.548-2.638l34.362-.31c3.112.218,4.1,1.807,4.1,1.807C656.3,848.111,654.207,851.466,653.092,851.475Z" transform="translate(-74.945 -184.46)" fill="#fff"/>
    <path id="Path_377" data-name="Path 377" d="M617.782,867.8c3.06-3.151,10.78-3.423,18.389-3.585s20.834-.433,20.384,4.091c-.092.927-7.93,10.869-20.818,9.768C623.056,876.99,617.782,867.8,617.782,867.8Z" transform="translate(-76.981 -193.429)" fill="#f16946"/>
    <path id="Path_378" data-name="Path 378" d="M721.324,1387.676c-13.422-.56-24.829,6.757-25.146,16.129-1.338,39.576-4.206,135.361-1.358,154.719,2.479,16.851,33.32,11.021,37.948,2.326,5.763-10.827,9.589-115.7,10.865-156.292.279-8.894-9.573-16.35-22.309-16.882Z" transform="translate(-112.1 -435.912)" fill="#ffd1b1"/>
    <path id="Path_379" data-name="Path 379" d="M714.246,1671.615c-11.181,2.311-19.011,10.91-17.261,18.953,7.39,33.964,25.58,116.092,32.081,131.977,5.659,13.829,21.3,1.971,23.253-6.391,2.426-10.413-8.407-99.988-16.066-134.8-1.678-7.628-11.4-11.928-22.006-9.735Z" transform="translate(-113.554 -567.18)" fill="#ffd1b1"/>
    <path id="Path_380" data-name="Path 380" d="M762.515,1923.308c-6.853-4.717-13.988-6.737-15.727-4.452-7.344,9.646-24.927,33.12-26.707,39.032-1.549,5.146,10.926,10.161,14.783,9.519,4.8-.8,28.879-22.26,36.361-32.187,1.639-2.175-2.207-7.436-8.71-11.912Z" transform="translate(-124.303 -681.528)" fill="#ffd1b1"/>
    <path id="Path_381" data-name="Path 381" d="M590.832,1387.676c13.289-.56,24.584,6.757,24.9,16.129,1.325,39.576,4.165,135.361,1.345,154.719-2.455,16.851-32.991,11.021-37.574,2.326-5.706-10.827-9.495-115.7-10.758-156.292-.276-8.894,9.479-16.35,22.089-16.882Z" transform="translate(-54.264 -435.912)" fill="#ffd1b1"/>
    <path id="Path_382" data-name="Path 382" d="M595.691,1668.68c10.747,2.084,18.258,10.579,16.556,18.725-7.187,34.4-24.873,117.579-31.163,133.734-5.475,14.063-20.494,2.454-22.348-5.932-2.309-10.443,8.32-100.97,15.768-136.23,1.631-7.726,10.989-12.273,21.187-10.3Z" transform="translate(-49.482 -565.871)" fill="#ffd1b1"/>
    <path id="Path_383" data-name="Path 383" d="M491.372,996.744c10.057,1.9,16.922,10.479,15.133,18.914-7.554,35.616-26.112,121.753-32.4,138.548-5.474,14.62-19.326,3-20.875-5.6-1.929-10.709,10.163-104.252,17.982-140.764,1.714-8,10.617-12.9,20.16-11.1Z" transform="translate(-0.666 -254.676)" fill="#ffd1b1"/>
    <path id="Path_384" data-name="Path 384" d="M780.291,997.361c10.089-1.732,19.561,4.552,20.879,13.85,5.565,39.263,19.68,128.669,19.752,148.18.063,16.985-17.956,15.8-22.457,7.553-5.605-10.269-27.475-110.556-33.109-150.834-1.235-8.825,5.362-17.106,14.935-18.749Z" transform="translate(-145.267 -255.002)" fill="#ffd1b1"/>
    <path id="Path_385" data-name="Path 385" d="M676.128,1279.125c-8.443-16.417-17.537-135.872-20.1-171.735a2.787,2.787,0,0,0,.26-1.657c-2.23-14.965-1.27-47.787-7.891-68.347-6.087-18.9-3.761-52.163-3.346-57.406a.687.687,0,0,0-.652-.741L623,978.129a.682.682,0,0,0-.616.316c-2.425,3.825-26.186,33.3-33.139,34.308-15.4,2.24-28.237-27.3-31.176-33.359a.685.685,0,0,0-.743-.374l-26.346,4.792a.688.688,0,0,0-.564.74c.367,4.056,2.325,27.095,1.5,48.486-.667,17.367-5.3,44.174-3.824,61.347l-.129,0s.509,52.171-1.213,94.445-14.616,99.519-14.616,99.519,108.316,3.523,114.183-9.22,14.383-34.815,14.383-34.815l19.11,39.631S682.329,1291.182,676.128,1279.125Z" transform="translate(-28.045 -246.226)" fill="#00182d"/>
    <path id="Path_386" data-name="Path 386" d="M550.475,832.783s22.179,62.973,35.273,78.1-5.268,37.744-5.613,45.184c-.336,7.241-9.317,9.476-9.317,9.476-8.261-2.488,10.867-28.359-3.545-46.689s-14.61-14.421-17.609-29.561C546.917,875.434,550.475,832.783,550.475,832.783Z" transform="translate(-44.947 -178.903)" fill="#002037"/>
    <path id="Path_387" data-name="Path 387" d="M482.219,1123.271l-24.7-7.968a1.131,1.131,0,0,1-.779-1.2c1.112-10.073,11.049-99.8,12.592-104.339.818-2.4,2.794-9.237,5.8-13.893a17.674,17.674,0,0,1,12.065-8.013c6.193-.917,21.494,1.519,21.494,1.519l1.426,37.564-4.854.161-21.586,95.342A1.134,1.134,0,0,1,482.219,1123.271Z" transform="translate(-2.384 -250.637)" fill="#00182d" opacity="0.3"/>
    <path id="Path_388" data-name="Path 388" d="M783.905,1122.355l25.605-9.3a1.643,1.643,0,0,0,1.073-1.752c-1.511-11.954-12.962-102.272-14.533-106.746-.841-2.4-3.18-10.307-6.23-14.935s-9.686-5.69-14.011-6.912c-9.107-2.575-21.643-3.2-21.643-3.2l-2.388,48.107s9.661-5.328,10.914,2.226c5.187,31.268,16.7,81.248,19.044,91.339A1.648,1.648,0,0,0,783.905,1122.355Z" transform="translate(-139.047 -246.865)" fill="#00182d" opacity="0.3"/>
    <path id="Path_389" data-name="Path 389" d="M614.314,954.072a49.7,49.7,0,0,0,20.146,3.438c10.214-.37,21.719-3.506,21.719-3.506l.582,2.665a85.67,85.67,0,0,1-21.823,3.589c-13.558.6-21.328-4.013-21.328-4.013Z" transform="translate(-75.048 -235.052)" fill="#00182d"/>
    <path id="Path_390" data-name="Path 390" d="M611.918,917.276s10.184,4.961,17.186,5.031c7.115.072,12.931.194,16.506-.382,11.006-1.772,14.2-5.53,14.2-5.53a104.869,104.869,0,0,1-7.725,7.142c-4.847,3.437-10.686,3.832-15.854,4.119-3.266.182-10.9-.905-15.646-3.36A31.942,31.942,0,0,1,611.918,917.276Z" transform="translate(-74.265 -217.632)" fill="#c49b87" opacity="0.3"/>
    <path id="Path_391" data-name="Path 391" d="M486.86,673.576c.222-22.832,45.856-35.243,83.006-35.847,55.675-.906,99.934,17.192,88.731,45.8-3.024,7.725-1.92,7.109-1.92,7.109s6.868-4.812,7.875-17.428-6.438-21.026-16.154-28.346-25.189-13.057-37.219-15.863c-27.136-6.327-65.879-3.286-78.432.487-12.022,3.614-33.975,8.534-45.02,24.712-8.652,12.672-6.683,17.037-5.861,21.734C482.643,680.388,486.679,692.166,486.86,673.576Z" transform="translate(-13.66 -82.822)" fill="#242424"/>
    <path id="Path_392" data-name="Path 392" d="M651.658,455.78c-4.08-.1,20.116,72.385,22.59,82.014,2.358,9.175,5.925,7.875,5.925,7.875s-17.27-63.251-21.52-75.082C655.657,462.244,654.742,455.857,651.658,455.78Z" transform="translate(-92.458 -4.278)" fill="#fff" opacity="0.2"/>
    <path id="Path_393" data-name="Path 393" d="M473.037,1249.984c13.01,12.106,44.337,41.563,49.188,48.968,4.224,6.446-7.7,12.65-12.43,11.826-5.889-1.026-39.114-27.319-52.416-39.777-2.914-2.73-3.765-22.549-2.98-25.868C454.4,1245.134,469.956,1247.117,473.037,1249.984Z" transform="translate(-1.174 -369.902)" fill="#ffd1b1"/>
    <path id="Path_394" data-name="Path 394" d="M548.612,1349.383c-.5-7.037,13.558-15.073,14.44-24.243.543-5.644,6.123,8.7,6.474,12.122.473,4.6-.964,16.529-8.311,16.529S548.846,1352.713,548.612,1349.383Z" transform="translate(-44.936 -406.357)" fill="#002037"/>
    <path id="Path_395" data-name="Path 395" d="M563.2,727.966s8.871-11.393,19.064-26.228,28.576-19.713,28.576-19.713-4,1.49-11.712,10.427S563.2,727.966,563.2,727.966Z" transform="translate(-51.7 -109.074)" fill="#b7a5cf"/>
    <path id="Path_396" data-name="Path 396" d="M581.275,730.082a91.268,91.268,0,0,1,13.247-28.343,54.322,54.322,0,0,1,24.692-19.713s-.117,1.49-7.828,10.427S581.275,730.082,581.275,730.082Z" transform="translate(-60.071 -109.074)" fill="#00182d"/>
    <g id="Group_208" data-name="Group 208" transform="translate(544.78 867.159)">
      <path id="Path_397" data-name="Path 397" d="M634,1233.719l76.395-.856.009,87.806-80.118-1.187-.648-8.625v-71.451Z" transform="translate(-627.25 -1231.377)" fill="#fff"/>
      <g id="Group_207" data-name="Group 207">
        <path id="Path_398" data-name="Path 398" d="M708.732,1230.095H635.825a10.646,10.646,0,0,0-10.632,10.633v72.907a7.6,7.6,0,0,0,7.594,7.594h75.945a1.519,1.519,0,0,0,1.519-1.519v-88.1A1.519,1.519,0,0,0,708.732,1230.095Zm-13.67,3.038H698.1v72.907h-3.038Zm-57.719,0h54.681v72.907H637.344Zm16.708,75.945v5.137l-3.878-1.94a1.518,1.518,0,0,0-1.358,0l-3.878,1.94v-5.137Zm-25.821-10.632a2.86,2.86,0,0,1,2.671-3.038,2.971,2.971,0,0,1,.367,0v-3.038a6.2,6.2,0,0,0-3.038.74v-2.258a2.86,2.86,0,0,1,2.671-3.038,2.791,2.791,0,0,1,.367,0v-3.038a6.191,6.191,0,0,0-3.038.74v-34.156a2.86,2.86,0,0,1,2.671-3.038,2.971,2.971,0,0,1,.367,0v-3.038a6.2,6.2,0,0,0-3.038.74v-5.3a7.608,7.608,0,0,1,6.076-7.443v72.756h-1.519a7.518,7.518,0,0,0-4.556,1.558Zm78.983,19.745H632.787a4.557,4.557,0,0,1,0-9.113H641.9v3.038H631.269v3.038H641.9v1.519a1.519,1.519,0,0,0,2.2,1.367l5.4-2.707,5.4,2.707a1.519,1.519,0,0,0,2.2-1.367v-1.519h50.124Zm0-6.076H657.09v-3.038h50.124Zm0-69.87h-3.038v3.038h3.038v6.076h-3.038v3.038h3.038v28.859h-3.038v3.038h3.038v19.746h-6.076v-72.907h6.076Z" transform="translate(-625.193 -1230.095)" fill="url(#linear-gradient)"/>
        <path id="Path_399" data-name="Path 399" d="M694.828,1301.458a4.557,4.557,0,1,0-4.556-4.557A4.557,4.557,0,0,0,694.828,1301.458Zm0-6.076a1.519,1.519,0,1,1-1.519,1.519A1.519,1.519,0,0,1,694.828,1295.383Z" transform="translate(-655.337 -1258.929)" fill="url(#linear-gradient)"/>
        <path id="Path_400" data-name="Path 400" d="M702.093,1290.018v-48.605H653.488v48.605Zm-33.744-11.838a12.592,12.592,0,0,1-4.013-4.663,25.237,25.237,0,0,1,3.363-3.534,10.535,10.535,0,0,0,.65,8.2ZM668,1265.909l2.9-5.8.557,3.905A20.427,20.427,0,0,0,668,1265.909Zm-3.161,13.325-5.6,4.2,3.4-6.8A15.861,15.861,0,0,0,664.84,1279.234Zm1.458,7.747h-6.735l7.763-5.822a16.359,16.359,0,0,0,1.859,1.012Zm9.973,0h-6.431l2.258-3.764a21.215,21.215,0,0,0,4.173.655Zm3.038,0v-3.109a21.2,21.2,0,0,0,4.172-.655l2.259,3.764Zm8.573-17a25.317,25.317,0,0,1,3.359,3.53,12.758,12.758,0,0,1-3.993,4.632A10.527,10.527,0,0,0,687.882,1269.982Zm-3.758-5.965.558-3.905,2.9,5.8A20.4,20.4,0,0,0,684.124,1264.017Zm5.158,22.963-2.886-4.81a16.4,16.4,0,0,0,1.859-1.012l7.761,5.822Zm1.458-7.754a15.863,15.863,0,0,0,2.2-2.6l3.4,6.8Zm8.315-34.775v37.614l-18.808-37.614Zm-19.746,4.915,2.986,5.973-1.1,7.723a15.774,15.774,0,0,0-1.882-.295Zm6.076,23.944a7.594,7.594,0,1,1-7.595-7.595A7.595,7.595,0,0,1,685.385,1273.31Zm-9.113-10.543a15.739,15.739,0,0,0-1.882.295l-1.1-7.723,2.986-5.973Zm-19.746-18.316h18.807l-18.807,37.614Z" transform="translate(-638.299 -1235.337)" fill="url(#linear-gradient)"/>
        <path id="Path_401" data-name="Path 401" d="M702.093,1337.617H653.488v15.189h48.605Zm-3.038,12.151h-42.53v-9.113h42.53Z" transform="translate(-638.299 -1279.898)" fill="url(#linear-gradient)"/>
        <rect id="Rectangle_106" data-name="Rectangle 106" width="6.076" height="3.038" transform="translate(21.265 63.794)" fill="url(#linear-gradient)"/>
        <rect id="Rectangle_107" data-name="Rectangle 107" width="6.076" height="3.038" transform="translate(51.643 63.794)" fill="url(#linear-gradient)"/>
        <rect id="Rectangle_108" data-name="Rectangle 108" width="18.227" height="3.038" transform="translate(30.378 63.794)" fill="url(#linear-gradient)"/>
        <rect id="Rectangle_109" data-name="Rectangle 109" width="3.038" height="3.038" transform="translate(22.783 13.67)" fill="url(#linear-gradient)"/>
        <rect id="Rectangle_110" data-name="Rectangle 110" width="3.038" height="3.038" transform="translate(21.265 21.265)" fill="url(#linear-gradient)"/>
        <rect id="Rectangle_111" data-name="Rectangle 111" width="3.038" height="3.038" transform="translate(50.124 16.708)" fill="url(#linear-gradient)"/>
        <rect id="Rectangle_112" data-name="Rectangle 112" width="3.038" height="3.038" transform="translate(54.68 22.784)" fill="url(#linear-gradient)"/>
      </g>
    </g>
    <path id="Path_402" data-name="Path 402" d="M686.872,1346.629s-10.454,36.11,8.409,35.435a40.215,40.215,0,0,0,29.1-14.25s-2.437-15.054-6.654-16.377C698.433,1345.379,686.872,1346.629,686.872,1346.629Z" transform="translate(-107.644 -416.864)" fill="#ffd1b1"/>
    <path id="Path_403" data-name="Path 403" d="M785.087,1282.371c-14.241,10.631-48.565,36.538-54.155,43.412-4.866,5.984,6.517,13.661,11.349,13.4,6.017-.328,41.055-25.648,55.624-36.6,3.192-2.4,8.664-6.467,5.184-24.387C803.089,1278.2,788.46,1279.854,785.087,1282.371Z" transform="translate(-128.842 -385.216)" fill="#ffd1b1"/>
    <path id="Path_404" data-name="Path 404" d="M718.367,1940.414s-40.863,37.926-22.152,45.32c10.4,4.109,33.045-5.445,41.069-14.715s17.882-21.62,20.793-25.13c1.216-1.467,8.6-5.651-3.243-17.629-1.864-1.885-7.83-15.124-5.8-3.121,1.652,9.767-15.788,42.022-26.044,39.789-11.876-2.586-14.525-4.432-11.544-11.534C715.734,1943.18,718.367,1940.414,718.367,1940.414Z" transform="translate(-111.039 -682.57)" fill="#242424"/>
    <path id="Path_405" data-name="Path 405" d="M552.816,1927.578c6.333-5.394,13.223-8.135,15.187-6.041,8.294,8.843,28.191,30.391,30.567,36.089,2.068,4.961-9.827,11.227-13.729,10.984-4.86-.3-31.008-19.183-39.468-28.29-1.854-2,1.433-7.623,7.443-12.742Z" transform="translate(-43.202 -682.881)" fill="#ffd1b1"/>
    <path id="Path_406" data-name="Path 406" d="M582.9,1942.6s44.535,33.537,26.681,42.81c-9.921,5.153-33.43-2.03-42.361-10.427s-20-19.674-23.259-22.866c-1.36-1.334-9.135-4.74,1.419-17.869,1.661-2.066,6.239-15.847,5.45-3.7-.642,9.885,20.012,40.182,29.985,36.91,11.548-3.789,13.995-5.9,10.3-12.656C585.8,1945.083,582.9,1942.6,582.9,1942.6Z" transform="translate(-40.919 -685.089)" fill="#242424"/>
    <path id="Path_407" data-name="Path 407" d="M573.983,1556.853s8.549,54.221,8.549,69.983-18.557,92.036-18.557,92.036,5.072-41.918,10.942-80.231c0,0,1.652-1.743,1.025-5.3-1.76-9.991-6.5-76.485-6.5-76.485Z" transform="translate(-52.058 -514.287)" fill="#c49b87" opacity="0.1"/>
    <path id="Path_408" data-name="Path 408" d="M762.38,1502.066s-3.025,82.585-3.234,99.88,13.083,89.353,19.733,94.557c0,0-8.384-64.1-13.508-92.236l.6-3.891c3.757-30.975,5.584-79.286,5.584-79.286Z" transform="translate(-142.458 -488.911)" fill="#c49b87" opacity="0.1"/>
    <ellipse id="Ellipse_42" data-name="Ellipse 42" cx="3.538" cy="6.762" rx="3.538" ry="6.762" transform="translate(451.586 886.149) rotate(-7.496)" fill="#fcbda4" opacity="0.6"/>
    <ellipse id="Ellipse_43" data-name="Ellipse 43" cx="11.722" cy="5.957" rx="11.722" ry="5.957" transform="translate(548.997 1126.841) rotate(-78.558)" fill="#fcbda4" opacity="0.6"/>
    <ellipse id="Ellipse_44" data-name="Ellipse 44" cx="5.957" cy="12.399" rx="5.957" ry="12.399" transform="translate(579.325 1103.579) rotate(-11.442)" fill="#fcbda4" opacity="0.6"/>
  </g>
</svg>
